<?xml version="1.0" encoding="UTF-8"?>
<svg version="1.1" xmlns="http://www.w3.org/2000/svg" width="1024" height="1024">
<path d="M0 0 C337.92 0 675.84 0 1024 0 C1024 337.92 1024 675.84 1024 1024 C686.08 1024 348.16 1024 0 1024 C0 686.08 0 348.16 0 0 Z " fill="#F5F1EA" transform="translate(0,0)"/>
<path d="M0 0 C3.21535169 2.0763101 6.08435536 4.52651769 9 7 C10.47339844 8.23169922 10.47339844 8.23169922 11.9765625 9.48828125 C16.53349644 13.31045266 21.04919902 17.18053895 25.55859375 21.05859375 C26.74735074 22.08078161 27.93615277 23.10291709 29.125 24.125 C29.71442383 24.63192383 30.30384766 25.13884766 30.91113281 25.66113281 C34.38073462 28.63700585 37.88587954 31.55937201 41.4375 34.4375 C47.12548109 39.05794212 52.64564851 43.86069222 58.171875 48.671875 C62.35342105 52.31223006 66.56020482 55.92257172 70.77368164 59.52587891 C73.82791705 62.13783076 76.87707803 64.75532686 79.91796875 67.3828125 C80.87981079 68.21220337 80.87981079 68.21220337 81.86108398 69.05834961 C83.0950741 70.12264017 84.32771982 71.18849202 85.55883789 72.25610352 C88.58584715 74.90695908 88.58584715 74.90695908 92 77 C91.98952637 76.10168457 91.97905273 75.20336914 91.96826172 74.27783203 C91.9342053 70.94935553 91.90911382 67.62106378 91.89013672 64.29248047 C91.88007037 62.85104453 91.8664162 61.40962905 91.84912109 59.96826172 C91.82489988 57.89806066 91.81352359 55.82812924 91.8046875 53.7578125 C91.79421387 52.5114502 91.78374023 51.26508789 91.77294922 49.98095703 C92 47 92 47 94 45 C96.97803039 44.79989146 99.86104914 44.72027387 102.83984375 44.734375 C103.71774063 44.73246155 104.59563751 44.7305481 105.50013733 44.72857666 C107.35873704 44.72721435 109.21734625 44.73091401 111.07592773 44.73925781 C113.92258089 44.74994399 116.7686011 44.73937075 119.61523438 44.7265625 C121.41927223 44.72788434 123.22330969 44.73044723 125.02734375 44.734375 C125.88053696 44.73032654 126.73373016 44.72627808 127.61277771 44.72210693 C133.65511072 44.77007382 133.65511072 44.77007382 137 47 C137.35162354 49.77494812 137.35162354 49.77494812 137.32128906 53.3581543 C137.32023666 54.0104451 137.31918427 54.6627359 137.31809998 55.33479309 C137.31448842 56.75350062 137.30432013 58.17220291 137.28842926 59.59082603 C137.26545842 61.84053357 137.2643011 64.08925789 137.26971436 66.33906555 C137.28239649 72.73597461 137.26556265 79.13236902 137.20947266 85.52905273 C137.17671222 89.44153978 137.1781213 93.35281798 137.20049286 97.26535988 C137.2022358 98.75284813 137.19104503 100.24041245 137.16638947 101.72769737 C136.82229324 109.9002264 136.82229324 109.9002264 139.48864746 117.40371704 C141.23505861 119.17532404 142.96629121 120.57596991 145 122 C146.17627506 123.03080431 147.34408334 124.07141696 148.5 125.125 C149.99799673 126.4189894 151.49838481 127.71021141 153 129 C155.46021735 131.12282439 157.91786468 133.24860947 160.375 135.375 C161.03016602 135.94138184 161.68533203 136.50776367 162.36035156 137.09130859 C166.02942238 140.26952465 169.66055003 143.48165099 173.25 146.75 C177.4646939 150.57392758 181.84287747 154.15885422 186.265625 157.73828125 C189.84405835 160.69815684 193.28110113 163.79444146 196.6953125 166.94140625 C198.76950503 168.79411721 200.90986031 170.44807698 203.125 172.125 C205.86299935 174.4487394 205.97628227 174.87278674 206.6875 178.6875 C206 182 206 182 202 185 C190.12 185 178.24 185 166 185 C166.33 217.34 166.66 249.68 167 283 C182.6295029 287.75960381 182.6295029 287.75960381 198.26098633 292.51269531 C200.24307233 293.11760586 202.22509164 293.72273498 204.20703125 294.328125 C205.20875366 294.63153809 206.21047607 294.93495117 207.24255371 295.24755859 C228.47495941 301.74564067 228.47495941 301.74564067 232 306 C232.625 309.5 232.625 309.5 232 313 C230.0625 315.5 230.0625 315.5 227 317 C219.06043608 316.56553888 211.28475789 314.75106566 203.50973511 313.1618042 C201.14413212 312.67864234 198.77743166 312.20120957 196.41040039 311.72509766 C190.08571951 310.45094576 183.76276374 309.17120651 177.453125 307.82421875 C161.4315121 304.42748803 145.22384299 302.176963 129 300 C128.08504761 299.8764917 127.17009521 299.7529834 126.22741699 299.62573242 C79.16907103 293.30269891 32.3336083 290.75211104 -15.11567688 290.63253021 C-17.63252247 290.62516097 -20.14931383 290.61330937 -22.6661377 290.60064697 C-43.94415091 290.50847332 -64.93766955 291.40545248 -86.11937523 293.44803715 C-92.75998586 294.08605335 -99.40863566 294.58631312 -106.0625 295.0625 C-112.56345171 295.5288 -118.83915009 296.28027707 -125.24194336 297.51147461 C-128.90632711 298.1605347 -132.57755294 298.54896544 -136.27734375 298.9362793 C-166.44852363 302.12040924 -196.55706271 309.07540709 -225.70874023 317.43505859 C-230.90231514 318.71560546 -234.63798212 318.76768281 -239.4375 316.0625 C-242 314 -242 314 -243 313 C-243.0625 309.75 -243.0625 309.75 -242 306 C-234.70747088 300.25322153 -225.71512354 297.93837997 -217 295.125 C-215.38934367 294.59711279 -213.77883026 294.06878929 -212.16845703 293.54003906 C-176.8460765 282 -176.8460765 282 -172 282 C-172 249.99 -172 217.98 -172 185 C-183.55 185 -195.1 185 -207 185 C-211 182 -211 182 -211.58203125 178.6796875 C-210.86155015 174.12469959 -208.97718387 172.09797362 -205.6875 169.125 C-204.87261108 168.3508374 -204.87261108 168.3508374 -204.04125977 167.56103516 C-199.77614383 163.56275983 -195.29059413 159.84790409 -190.71484375 156.2109375 C-187.87850447 153.90105544 -185.18908246 151.47929588 -182.5 149 C-178.12695905 144.97902591 -173.61900842 141.19810481 -169 137.46484375 C-163.55661418 132.99247858 -158.27095154 128.3367355 -152.96142578 123.70703125 C-150.99773031 121.99802468 -149.02909541 120.29490251 -147.05859375 118.59375 C-141.57735727 113.86020476 -136.10695356 109.12457385 -130.75 104.25 C-127.47850165 101.28032028 -124.13030428 98.45660445 -120.6875 95.6875 C-115.8749471 91.79808842 -111.3540148 87.6725675 -106.84106445 83.4465332 C-102.60505142 79.50209561 -98.19365192 75.83519299 -93.6796875 72.2109375 C-90.86746685 69.8906505 -88.18202737 67.46928866 -85.5 65 C-81.05272888 60.90648909 -76.45282537 57.07557501 -71.75 53.28125 C-68.91900422 50.93281032 -66.20616402 48.49090098 -63.5 46 C-59.10971431 41.96366945 -54.5882438 38.15969471 -49.94921875 34.4140625 C-46.5863127 31.66137914 -43.29076651 28.83811331 -40 26 C-34.97299522 21.66916767 -29.89383114 17.41618613 -24.73828125 13.23828125 C-22.74084367 11.60556836 -20.76121151 9.96012388 -18.79296875 8.29296875 C-17.98496826 7.61065186 -17.98496826 7.61065186 -17.16064453 6.91455078 C-15.64772273 5.63459953 -14.13821055 4.35062123 -12.62890625 3.06640625 C-8.11780116 -0.47946982 -5.64968936 -1.81216451 0 0 Z " fill="#F5F1EA" transform="translate(512,149)"/>
<path d="M0 0 C3.21535169 2.0763101 6.08435536 4.52651769 9 7 C10.47339844 8.23169922 10.47339844 8.23169922 11.9765625 9.48828125 C16.53349644 13.31045266 21.04919902 17.18053895 25.55859375 21.05859375 C26.74735074 22.08078161 27.93615277 23.10291709 29.125 24.125 C29.71442383 24.63192383 30.30384766 25.13884766 30.91113281 25.66113281 C34.38073462 28.63700585 37.88587954 31.55937201 41.4375 34.4375 C47.12548109 39.05794212 52.64564851 43.86069222 58.171875 48.671875 C62.35342105 52.31223006 66.56020482 55.92257172 70.77368164 59.52587891 C73.82791705 62.13783076 76.87707803 64.75532686 79.91796875 67.3828125 C80.87981079 68.21220337 80.87981079 68.21220337 81.86108398 69.05834961 C83.0950741 70.12264017 84.32771982 71.18849202 85.55883789 72.25610352 C88.58584715 74.90695908 88.58584715 74.90695908 92 77 C91.98952637 76.10168457 91.97905273 75.20336914 91.96826172 74.27783203 C91.9342053 70.94935553 91.90911382 67.62106378 91.89013672 64.29248047 C91.88007037 62.85104453 91.8664162 61.40962905 91.84912109 59.96826172 C91.82489988 57.89806066 91.81352359 55.82812924 91.8046875 53.7578125 C91.79421387 52.5114502 91.78374023 51.26508789 91.77294922 49.98095703 C92 47 92 47 94 45 C96.97803039 44.79989146 99.86104914 44.72027387 102.83984375 44.734375 C103.71774063 44.73246155 104.59563751 44.7305481 105.50013733 44.72857666 C107.35873704 44.72721435 109.21734625 44.73091401 111.07592773 44.73925781 C113.92258089 44.74994399 116.7686011 44.73937075 119.61523438 44.7265625 C121.41927223 44.72788434 123.22330969 44.73044723 125.02734375 44.734375 C125.88053696 44.73032654 126.73373016 44.72627808 127.61277771 44.72210693 C133.65511072 44.77007382 133.65511072 44.77007382 137 47 C137.35162354 49.77494812 137.35162354 49.77494812 137.32128906 53.3581543 C137.32023666 54.0104451 137.31918427 54.6627359 137.31809998 55.33479309 C137.31448842 56.75350062 137.30432013 58.17220291 137.28842926 59.59082603 C137.26545842 61.84053357 137.2643011 64.08925789 137.26971436 66.33906555 C137.28239649 72.73597461 137.26556265 79.13236902 137.20947266 85.52905273 C137.17671222 89.44153978 137.1781213 93.35281798 137.20049286 97.26535988 C137.2022358 98.75284813 137.19104503 100.24041245 137.16638947 101.72769737 C136.82229324 109.9002264 136.82229324 109.9002264 139.48864746 117.40371704 C141.23505861 119.17532404 142.96629121 120.57596991 145 122 C146.17627506 123.03080431 147.34408334 124.07141696 148.5 125.125 C149.99799673 126.4189894 151.49838481 127.71021141 153 129 C155.46021735 131.12282439 157.91786468 133.24860947 160.375 135.375 C161.03016602 135.94138184 161.68533203 136.50776367 162.36035156 137.09130859 C166.02942238 140.26952465 169.66055003 143.48165099 173.25 146.75 C177.4646939 150.57392758 181.84287747 154.15885422 186.265625 157.73828125 C189.84405835 160.69815684 193.28110113 163.79444146 196.6953125 166.94140625 C198.76950503 168.79411721 200.90986031 170.44807698 203.125 172.125 C205.86299935 174.4487394 205.97628227 174.87278674 206.6875 178.6875 C206 182 206 182 202 185 C190.12 185 178.24 185 166 185 C166.33 217.34 166.66 249.68 167 283 C182.6295029 287.75960381 182.6295029 287.75960381 198.26098633 292.51269531 C200.24307233 293.11760586 202.22509164 293.72273498 204.20703125 294.328125 C205.20875366 294.63153809 206.21047607 294.93495117 207.24255371 295.24755859 C228.47495941 301.74564067 228.47495941 301.74564067 232 306 C232.625 309.5 232.625 309.5 232 313 C230.0625 315.5 230.0625 315.5 227 317 C219.06043608 316.56553888 211.28475789 314.75106566 203.50973511 313.1618042 C201.14413212 312.67864234 198.77743166 312.20120957 196.41040039 311.72509766 C190.08571951 310.45094576 183.76276374 309.17120651 177.453125 307.82421875 C161.4315121 304.42748803 145.22384299 302.176963 129 300 C128.08504761 299.8764917 127.17009521 299.7529834 126.22741699 299.62573242 C79.16907103 293.30269891 32.3336083 290.75211104 -15.11567688 290.63253021 C-17.63252247 290.62516097 -20.14931383 290.61330937 -22.6661377 290.60064697 C-43.94415091 290.50847332 -64.93766955 291.40545248 -86.11937523 293.44803715 C-92.75998586 294.08605335 -99.40863566 294.58631312 -106.0625 295.0625 C-112.56345171 295.5288 -118.83915009 296.28027707 -125.24194336 297.51147461 C-128.90632711 298.1605347 -132.57755294 298.54896544 -136.27734375 298.9362793 C-166.44852363 302.12040924 -196.55706271 309.07540709 -225.70874023 317.43505859 C-230.90231514 318.71560546 -234.63798212 318.76768281 -239.4375 316.0625 C-242 314 -242 314 -243 313 C-243.0625 309.75 -243.0625 309.75 -242 306 C-234.70747088 300.25322153 -225.71512354 297.93837997 -217 295.125 C-215.38934367 294.59711279 -213.77883026 294.06878929 -212.16845703 293.54003906 C-176.8460765 282 -176.8460765 282 -172 282 C-172 249.99 -172 217.98 -172 185 C-183.55 185 -195.1 185 -207 185 C-211 182 -211 182 -211.58203125 178.6796875 C-210.86155015 174.12469959 -208.97718387 172.09797362 -205.6875 169.125 C-204.87261108 168.3508374 -204.87261108 168.3508374 -204.04125977 167.56103516 C-199.77614383 163.56275983 -195.29059413 159.84790409 -190.71484375 156.2109375 C-187.87850447 153.90105544 -185.18908246 151.47929588 -182.5 149 C-178.12695905 144.97902591 -173.61900842 141.19810481 -169 137.46484375 C-163.55661418 132.99247858 -158.27095154 128.3367355 -152.96142578 123.70703125 C-150.99773031 121.99802468 -149.02909541 120.29490251 -147.05859375 118.59375 C-141.57735727 113.86020476 -136.10695356 109.12457385 -130.75 104.25 C-127.47850165 101.28032028 -124.13030428 98.45660445 -120.6875 95.6875 C-115.8749471 91.79808842 -111.3540148 87.6725675 -106.84106445 83.4465332 C-102.60505142 79.50209561 -98.19365192 75.83519299 -93.6796875 72.2109375 C-90.86746685 69.8906505 -88.18202737 67.46928866 -85.5 65 C-81.05272888 60.90648909 -76.45282537 57.07557501 -71.75 53.28125 C-68.91900422 50.93281032 -66.20616402 48.49090098 -63.5 46 C-59.10971431 41.96366945 -54.5882438 38.15969471 -49.94921875 34.4140625 C-46.5863127 31.66137914 -43.29076651 28.83811331 -40 26 C-34.97299522 21.66916767 -29.89383114 17.41618613 -24.73828125 13.23828125 C-22.74084367 11.60556836 -20.76121151 9.96012388 -18.79296875 8.29296875 C-17.98496826 7.61065186 -17.98496826 7.61065186 -17.16064453 6.91455078 C-15.64772273 5.63459953 -14.13821055 4.35062123 -12.62890625 3.06640625 C-8.11780116 -0.47946982 -5.64968936 -1.81216451 0 0 Z M-10.8125 43.75 C-11.66811523 44.49056641 -11.66811523 44.49056641 -12.54101562 45.24609375 C-13.75200698 46.29465115 -14.96044059 47.34616866 -16.16650391 48.40039062 C-19.0935095 50.95401788 -22.04837059 53.47492811 -25 56 C-26.17581606 57.00907402 -27.35159735 58.01818856 -28.52734375 59.02734375 C-33.46133093 63.2562789 -38.42594828 67.44887759 -43.39111328 71.64111328 C-46.09572289 73.92546186 -48.79772127 76.21289508 -51.5 78.5 C-52.58332099 79.41668126 -53.66665432 80.33334793 -54.75 81.25 C-55.28625 81.70375 -55.8225 82.1575 -56.375 82.625 C-62.33333333 87.66666667 -68.29166667 92.70833333 -74.25 97.75 C-74.7864917 98.2039917 -75.3229834 98.6579834 -75.87573242 99.12573242 C-76.95647613 100.04013289 -78.03736751 100.95435886 -79.1184082 101.8684082 C-81.86761483 104.1933213 -84.61399702 106.52143781 -87.35546875 108.85546875 C-92.18847792 112.96578496 -97.02861133 117.05662062 -102 121 C-109.35605544 126.83738593 -116.47604435 132.96123918 -123.58984375 139.08984375 C-129.71271775 144.36298574 -135.85814543 149.57175244 -142.20703125 154.57421875 C-143.91451423 155.87673338 -143.91451423 155.87673338 -145 157 C-145.09584998 158.54353131 -145.1218807 160.09145108 -145.12025452 161.63795471 C-145.12162918 162.64061371 -145.12300385 163.64327271 -145.12442017 164.67631531 C-145.12082489 165.78545792 -145.11722961 166.89460052 -145.11352539 168.03735352 C-145.11367142 169.19817444 -145.11381744 170.35899536 -145.1139679 171.55499268 C-145.11326817 175.41298252 -145.10547298 179.27092478 -145.09765625 183.12890625 C-145.09579228 185.79548728 -145.09431912 188.46206564 -145.09336853 191.12864685 C-145.09025548 197.4432888 -145.08204244 203.75791351 -145.07201904 210.07254785 C-145.0608571 217.25985633 -145.05534725 224.44716561 -145.05032361 231.6344806 C-145.0398598 246.42299589 -145.02226086 261.21149765 -145 276 C-143.10795554 275.85320701 -141.21615621 275.70325278 -139.32446289 275.55200195 C-138.27094131 275.46884232 -137.21741974 275.38568268 -136.13197327 275.30000305 C-131.51492663 274.85774893 -126.99636578 274.0234334 -122.4375 273.1875 C-113.06056121 271.56227399 -103.66867372 270.23686682 -94.21878052 269.12832642 C-92.18805386 268.88975045 -90.15831813 268.6427827 -88.12866211 268.39526367 C-60.81177762 265.20537541 -33.39288035 264.66604868 -5.92382812 264.73925781 C-1.60276289 264.75068758 2.71805693 264.74383157 7.039114 264.73238945 C34.16865461 264.67125664 60.95536667 265.73501028 87.875 269.375 C89.53837928 269.59293782 91.20179132 269.81062565 92.86523438 270.02807617 C103.01892703 271.37284381 113.13135464 272.89118445 123.19091797 274.83154297 C127.89424868 275.7267501 132.20986957 276.17383538 137 276 C138.19837632 273.60324737 138.15207018 272.0627216 138.1942749 269.38500977 C138.21154633 268.41225601 138.22881775 267.43950226 138.24661255 266.43727112 C138.26029877 265.36613571 138.27398499 264.29500031 138.28808594 263.19140625 C138.30590118 262.06600937 138.32371643 260.94061249 138.34207153 259.78111267 C138.49665974 249.38441489 138.58550041 238.98675088 138.65206528 228.58914185 C138.70222541 220.90952653 138.78800942 213.232058 138.92068648 205.55341625 C139.0218298 199.49431488 139.06227928 193.43607049 139.0825882 187.37619019 C139.10035469 184.80528622 139.13716156 182.23443891 139.19359589 179.66409302 C140.20354463 165.82477236 140.20354463 165.82477236 135.66467285 153.29663086 C132.89323864 150.73800675 130.24724784 148.89660929 127 147 C125.18744238 145.54650822 123.39277111 144.07014345 121.625 142.5625 C120.72136719 141.83289063 119.81773437 141.10328125 118.88671875 140.3515625 C115.69988702 137.75552366 112.56651399 135.10260087 109.4375 132.4375 C105.66930656 129.23238893 101.87752843 126.0731141 98 123 C93.54746299 119.47116597 89.21314021 115.81770671 84.88671875 112.13671875 C81.45428391 109.21995487 77.99407185 106.34306574 74.5 103.5 C69.8954642 99.75212202 65.35980809 95.93016556 60.8359375 92.0859375 C57.4194046 89.18755177 53.97495162 86.328449 50.5 83.5 C46.46016457 80.21176186 42.46919573 76.87265239 38.5 73.5 C33.74142849 69.45882551 28.94310209 65.47303445 24.1015625 61.53125 C19.35771 57.66707346 14.64389041 53.76617154 9.92480469 49.87182617 C8.88308105 49.012948 8.88308105 49.012948 7.8203125 48.13671875 C7.16192383 47.59321777 6.50353516 47.0497168 5.82519531 46.48974609 C4.25299903 45.20650081 2.65603767 43.95370572 1.0546875 42.70703125 C-1 41 -1 41 -2 39 C-6.11023725 39 -7.88011296 41.15663744 -10.8125 43.75 Z " fill="#01487C" transform="translate(512,149)"/>
<path d="M0 0 C0.91673492 0.00404846 1.83346985 0.00809692 2.77798462 0.01226807 C3.74262131 0.00876343 4.707258 0.00525879 5.7011261 0.00164795 C8.91049278 -0.00719574 12.11964082 -0.00130314 15.32901001 0.00543213 C17.56750023 0.00408437 19.80599016 0.00214291 22.04447937 -0.00036621 C26.75482956 -0.00332255 31.46510414 0.00098964 36.17544556 0.01031494 C42.16197607 0.02159831 48.14832504 0.0152247 54.13484859 0.00317001 C58.77051608 -0.00413078 63.40614211 -0.00172148 68.04181099 0.0034256 C70.24502141 0.00474536 72.44823579 0.00317418 74.65144157 -0.00153351 C104.56097081 -0.0513292 132.76062864 1.6994394 155.11074829 23.79693604 C158.3392994 27.24964442 160.50133575 31.01523207 162.48916626 35.27105713 C162.93518188 36.155354 163.38119751 37.03965088 163.84072876 37.95074463 C168.7499348 48.08495359 170.99061425 57.57981469 170.80166626 68.83355713 C170.80488892 69.79713135 170.80811157 70.76070557 170.81143188 71.753479 C170.73869701 81.55946271 168.85270829 90.2442006 165.23916626 99.33355713 C164.93124146 100.11432617 164.62331665 100.89509521 164.30606079 101.69952393 C158.29133523 116.50131513 147.55717453 126.47481938 133.78994751 134.36090088 C130.73948748 135.56761936 127.73568678 135.89811946 124.48916626 136.27105713 C130.89978306 147.39250597 137.96772922 157.87471902 145.48916626 168.27105713 C146.5908873 169.7995887 147.69244809 171.32823579 148.79385376 172.85699463 C150.98338759 175.89315678 153.17650842 178.92668555 155.37197876 181.95855713 C159.77402831 188.04158674 164.13134575 194.15629842 168.48916626 200.27105713 C169.17099976 201.1764624 169.17099976 201.1764624 169.86660767 202.10015869 C170.32213013 202.71214111 170.77765259 203.32412354 171.24697876 203.95465088 C171.87563843 204.78500854 171.87563843 204.78500854 172.51699829 205.63214111 C174.03892085 208.19785336 173.90094517 210.38860473 173.48916626 213.27105713 C169.65783015 217.10239324 155.64644537 215.15221579 150.42886353 215.28033447 C147.94586433 215.35691341 145.46363248 215.46582241 142.98355103 215.60845947 C123.03418974 216.73240475 123.03418974 216.73240475 117.24594116 212.71356201 C113.41293824 208.79628066 110.88199374 204.2777744 108.5166626 199.36816406 C107.17962903 196.63929558 105.53022398 194.18336702 103.81729126 191.67730713 C102.78697517 190.04457998 101.7609038 188.40916628 100.73916626 186.77105713 C99.57157989 184.91925348 98.40359353 183.06770198 97.23526001 181.21636963 C96.63439575 180.26149658 96.03353149 179.30662354 95.41445923 178.32281494 C91.8986637 172.7499714 88.35015218 167.19810992 84.80166626 161.64605713 C84.11814087 160.5729126 83.43461548 159.49976807 82.7303772 158.394104 C82.0900354 157.39185791 81.4496936 156.38961182 80.78994751 155.35699463 C80.2244519 154.47060303 79.6589563 153.58421143 79.07632446 152.67095947 C77.62848972 150.48172466 76.06397762 148.37080561 74.48916626 146.27105713 C63.59916626 146.27105713 52.70916626 146.27105713 41.48916626 146.27105713 C41.15916626 168.71105713 40.82916626 191.15105713 40.48916626 214.27105713 C24.31916626 214.27105713 8.14916626 214.27105713 -8.51083374 214.27105713 C-8.55593046 186.66423023 -8.59279365 159.05743302 -8.61445808 131.45057869 C-8.62478332 118.63307504 -8.63886742 105.81559586 -8.66171265 92.99810791 C-8.6816084 81.83014532 -8.69454109 70.66220044 -8.69901073 59.49422061 C-8.70162459 53.57747575 -8.70779406 47.66078156 -8.72229385 41.74405289 C-8.73581757 36.18080912 -8.74006699 30.61763715 -8.7370491 25.05437851 C-8.73760161 23.00726685 -8.74160994 20.96015292 -8.74924469 18.91305542 C-8.7591245 16.12858259 -8.75682829 13.34438456 -8.75134277 10.55990601 C-8.75716846 9.74085065 -8.76299414 8.92179529 -8.76899636 8.07792008 C-8.72976082 0.76245376 -7.17372704 0.04853701 0 0 Z " fill="#01497D" transform="translate(433.5108337402344,509.72894287109375)"/>
<path d="M0 0 C0.84827362 0.00444122 1.69654724 0.00888245 2.57052612 0.01345825 C3.53137115 0.01360931 4.49221619 0.01376038 5.48217773 0.01391602 C6.52179657 0.02423859 7.56141541 0.03456116 8.63253784 0.04519653 C9.6951181 0.04802643 10.75769836 0.05085632 11.85247803 0.05377197 C15.25584033 0.06499264 18.6589422 0.09010066 22.06222534 0.11550903 C24.36560697 0.12553639 26.6689927 0.13466266 28.97238159 0.14285278 C34.6274188 0.1649381 40.28230347 0.19843415 45.93722534 0.24050903 C50.12849655 8.2642764 53.75204245 16.40454246 57.08712769 24.81787109 C61.99806149 37.19586756 67.14270972 49.45986983 72.43722534 61.67800903 C77.41725057 73.18358455 82.19383928 84.7478978 86.74972534 96.42800903 C87.01781006 97.11518005 87.28589478 97.80235107 87.56210327 98.51034546 C87.82736816 99.19038635 88.09263306 99.87042725 88.36593628 100.57107544 C91.56255527 108.76464864 94.80974839 116.93166654 98.18722534 125.05300903 C98.53889771 125.90338745 98.89057007 126.75376587 99.25289917 127.62991333 C101.06336527 131.95439028 102.93224834 136.24634116 104.88668823 140.50759888 C111.02335383 153.90846994 116.51446493 167.51288525 121.87472534 181.24050903 C123.14733364 184.48943438 124.42136581 187.7377899 125.69737244 190.98538208 C126.48200942 192.98337348 127.26453733 194.98219483 128.04463196 196.98196411 C128.57142296 198.32617432 128.57142296 198.32617432 129.1088562 199.69754028 C129.41480209 200.48104858 129.72074799 201.26455688 130.03596497 202.07180786 C130.90895883 204.26060348 130.90895883 204.26060348 132.03977966 206.35647583 C133.18736614 208.76563671 133.15093025 210.60481521 132.93722534 213.24050903 C131.37175768 214.80597669 129.82447114 214.39093349 127.64865112 214.41751099 C126.28185715 214.43676384 126.28185715 214.43676384 124.88745117 214.45640564 C123.89582977 214.46379257 122.90420837 214.4711795 121.88253784 214.47879028 C120.87004974 214.48686203 119.85756165 214.49493378 118.81439209 214.50325012 C116.66736575 214.51710837 114.52031721 214.5278227 112.3732605 214.53567505 C109.08296175 214.55290047 105.79366414 214.59677289 102.50363159 214.64089966 C100.42160776 214.65102485 98.33957536 214.65954149 96.25753784 214.66629028 C94.77617844 214.69255241 94.77617844 214.69255241 93.26489258 214.71934509 C92.34739227 214.71641953 91.42989197 214.71349396 90.48458862 214.71047974 C89.6770816 214.71634598 88.86957458 214.72221222 88.03759766 214.72825623 C85.93722534 214.24050903 85.93722534 214.24050903 84.23245239 212.38825989 C82.62872851 209.7289583 81.52787947 207.04643767 80.41378784 204.14675903 C79.94972534 202.95050903 79.48566284 201.75425903 79.00753784 200.52175903 C78.52546597 199.26145747 78.0436963 198.00104028 77.56222534 196.74050903 C76.61814233 194.29211793 75.67283962 191.84419677 74.72628784 189.39675903 C74.26641479 188.20437622 73.80654175 187.01199341 73.33273315 185.78347778 C71.58133602 181.33696356 69.72341322 176.94013283 67.83322144 172.55105591 C66.93722534 170.24050903 66.93722534 170.24050903 66.93722534 168.24050903 C36.57722534 168.57050903 6.21722534 168.90050903 -25.06277466 169.24050903 C-33.58486868 191.05939121 -33.58486868 191.05939121 -41.06277466 213.24050903 C-42.63577794 214.81351231 -44.19961511 214.36776407 -46.38308716 214.36990356 C-47.30073853 214.37305573 -48.21838989 214.37620789 -49.16384888 214.37945557 C-50.16174438 214.37743134 -51.15963989 214.3754071 -52.18777466 214.37332153 C-53.2050061 214.37427826 -54.22223755 214.37523499 -55.27029419 214.3762207 C-57.42573101 214.37690265 -59.58116988 214.37504738 -61.73660278 214.37088013 C-65.04849837 214.36553209 -68.36025832 214.37082466 -71.67214966 214.37722778 C-73.76069163 214.376567 -75.84923351 214.37528585 -77.93777466 214.37332153 C-79.43461792 214.37635788 -79.43461792 214.37635788 -80.96170044 214.37945557 C-81.87935181 214.37630341 -82.79700317 214.37315125 -83.74246216 214.36990356 C-84.5544104 214.36910797 -85.36635864 214.36831238 -86.20291138 214.36749268 C-88.06277466 214.24050903 -88.06277466 214.24050903 -89.06277466 213.24050903 C-88.71597818 206.00408302 -86.79159932 200.17313674 -84.04714966 193.51394653 C-83.63991669 192.50086929 -83.23268372 191.48779205 -82.81311035 190.4440155 C-81.49078627 187.16322098 -80.15224745 183.88933514 -78.81277466 180.61550903 C-77.8912937 178.34115265 -76.97056247 176.06649236 -76.05056763 173.79153442 C-68.42047397 154.96230197 -60.60023358 136.21817446 -52.62727356 117.5316925 C-51.20866812 114.2060063 -49.79180832 110.8795781 -48.37527466 107.55300903 C-48.0916507 106.88768158 -47.80802673 106.22235413 -47.51580811 105.53686523 C-42.17212061 92.99079176 -37.01519278 80.37118229 -31.87527466 67.74050903 C-26.24516855 53.9057279 -20.50900558 40.1467269 -14.40261841 26.51394653 C-11.64937251 20.36043625 -9.05975058 14.13947535 -6.52127075 7.89456177 C-3.4294423 0.39985553 -3.4294423 0.39985553 0 0 Z " fill="#00487C" transform="translate(264.0627746582031,509.7594909667969)"/>
<path d="M0 0 C0.85049423 0.00222061 1.70098846 0.00444122 2.57725525 0.00672913 C4.01863609 0.00684242 4.01863609 0.00684242 5.48913574 0.00695801 C7.05630592 0.01469994 7.05630592 0.01469994 8.65513611 0.02259827 C9.71913132 0.02401321 10.78312653 0.02542816 11.87936401 0.02688599 C15.29293069 0.03250388 18.70643286 0.04505941 22.11997986 0.05775452 C24.42792162 0.06276721 26.73586441 0.06733052 29.04380798 0.07142639 C34.71505412 0.08247912 40.38626238 0.09923465 46.05747986 0.12025452 C48.32168527 5.17385626 50.55172864 10.23370002 52.65122986 15.35853577 C53.35155334 17.06203186 53.35155334 17.06203186 54.06602478 18.79994202 C54.80429504 20.5981842 54.80429504 20.5981842 55.55747986 22.43275452 C59.71420537 32.52698656 63.93645579 42.58967772 68.24497986 52.62025452 C68.7463446 53.78790344 69.24770935 54.95555237 69.76426697 56.15858459 C71.97354376 61.29641232 74.19060775 66.43065439 76.42466736 71.55775452 C81.03514805 82.16906557 85.35550916 92.87053154 89.55870056 103.64955139 C93.40570126 113.50144995 97.333899 123.31873804 101.30747986 133.12025452 C101.62107452 133.89384308 101.93466919 134.66743164 102.25776672 135.46446228 C106.78651079 146.62484525 111.3852509 157.75499989 116.02830505 168.86827087 C116.98284497 171.15370029 117.93595922 173.43971852 118.88853455 175.72596741 C119.19234039 176.45503799 119.49614624 177.18410858 119.80915833 177.93527222 C120.40275662 179.35987393 120.99628451 180.78450499 121.58973694 182.20916748 C122.88799553 185.32384216 124.19089811 188.43629491 125.50328064 191.5450592 C126.69926579 194.37810203 127.8805658 197.21675122 129.05747986 200.05775452 C129.38997742 200.83191711 129.72247498 201.60607971 130.06504822 202.40370178 C131.67475662 206.33577587 132.54482204 209.0378101 131.05747986 213.12025452 C130.05747986 214.12025452 130.05747986 214.12025452 128.22885132 214.24050903 C127.43165176 214.23828842 126.63445221 214.23606781 125.81309509 214.23377991 C124.91223679 214.23370438 124.01137848 214.23362885 123.08322144 214.23355103 C122.10406265 214.22838974 121.12490387 214.22322845 120.11607361 214.21791077 C119.11866653 214.21649582 118.12125946 214.21508087 117.09362793 214.21362305 C113.89404862 214.20800566 110.69453817 214.19545023 107.49497986 214.18275452 C105.33156941 214.17774176 103.16815786 214.17317846 101.00474548 214.16908264 C95.68896661 214.15803059 90.37322815 214.14127555 85.05747986 214.12025452 C84.62403259 213.07683899 84.19058533 212.03342346 83.7440033 210.95838928 C82.11995229 207.0497234 80.49444285 203.14166539 78.86851501 199.23377991 C78.16792791 197.5493725 77.46772492 195.86480527 76.76792908 194.18006897 C75.75610677 191.74433409 74.74285776 189.30919676 73.72935486 186.87416077 C73.42189331 186.13315628 73.11443176 185.39215179 72.7976532 184.62869263 C70.62740125 179.41976012 68.35088441 174.28041477 66.05747986 169.12025452 C36.35747986 169.12025452 6.65747986 169.12025452 -23.94252014 169.12025452 C-26.56403701 175.01866747 -29.14168766 180.91475756 -31.61439514 186.87416077 C-31.94167603 187.66048386 -32.26895691 188.44680695 -32.6061554 189.25695801 C-33.63595812 191.73180301 -34.66426618 194.2072657 -35.69252014 196.68275452 C-36.39684779 198.37615525 -37.10127402 200.06951499 -37.80580139 201.76283264 C-39.51917897 205.88150102 -41.23121777 210.00072348 -42.94252014 214.12025452 C-49.31455607 214.17085082 -55.68654044 214.20594409 -62.05873108 214.2301178 C-64.22769608 214.2401924 -66.39664746 214.25385249 -68.56556702 214.27113342 C-71.6782314 214.29531774 -74.79071665 214.30672284 -77.90345764 214.31556702 C-78.87745514 214.32588959 -79.85145264 214.33621216 -80.85496521 214.34684753 C-81.75574799 214.3469986 -82.65653076 214.34714966 -83.58460999 214.3473053 C-84.7770784 214.35396713 -84.7770784 214.35396713 -85.99363708 214.36076355 C-87.94252014 214.12025452 -87.94252014 214.12025452 -89.94252014 212.12025452 C-89.61790447 206.92689038 -87.60286782 202.50589698 -85.54798889 197.80384827 C-85.20483643 197.00374329 -84.86168396 196.20363831 -84.50813293 195.37928772 C-83.77131968 193.66304843 -83.03157274 191.9480662 -82.28916931 190.23423767 C-80.71768902 186.60567921 -79.16112261 182.97079022 -77.60391235 179.33609009 C-76.81898589 177.50412014 -76.03337133 175.67244485 -75.24707031 173.84106445 C-72.06926543 166.4357653 -68.9517407 159.00778277 -65.88002014 151.55775452 C-65.41482971 150.43095276 -64.94963928 149.304151 -64.47035217 148.14320374 C-62.0048006 142.15925245 -59.55329838 136.16966869 -57.10842896 130.17724609 C-50.23380015 113.32819126 -43.31686765 96.51356838 -36.02357483 79.8407135 C-31.15708332 68.6882128 -26.44652225 57.47235365 -21.75502014 46.24525452 C-21.17426224 44.85593719 -21.17426224 44.85593719 -20.58177185 43.43855286 C-16.9112386 34.65519112 -13.24934951 25.86829458 -9.60658264 17.07337952 C-9.13502747 15.93626526 -8.66347229 14.799151 -8.17762756 13.62757874 C-7.33940601 11.60417657 -6.50346799 9.57982621 -5.67030334 7.55433655 C-5.31540833 6.69694885 -4.96051331 5.83956116 -4.59486389 4.95619202 C-4.29572083 4.22964417 -3.99657776 3.50309631 -3.68836975 2.75453186 C-2.50194666 0.15488662 -2.50194666 0.15488662 0 0 Z " fill="#00487C" transform="translate(716.9425201416016,509.87974548339844)"/>
<path d="M0 0 C8.91 -0.0309375 8.91 -0.0309375 18 -0.0625 C19.83820313 -0.071604 21.67640625 -0.08070801 23.5703125 -0.09008789 C62.07438293 -0.20240837 62.07438293 -0.20240837 73 10 C79.18313876 16.6712813 79.53715496 23.29299303 79.30078125 31.98046875 C78.86666226 39.63203922 76.45179075 44.97268103 71 50.375 C65.85960886 54.56847698 60.37310158 56.42234495 54 58 C53.3719899 58.16753784 52.7439798 58.33507568 52.09693909 58.50769043 C46.09127418 60.00323371 40.44751559 60.26352087 34.27734375 60.1953125 C32.96401062 60.19229126 32.96401062 60.19229126 31.62414551 60.18920898 C28.39520935 60.17885041 25.16634866 60.150929 21.9375 60.125 C14.698125 60.08375 7.45875 60.0425 0 60 C0 40.2 0 20.4 0 0 Z " fill="#F5F1EA" transform="translate(475,552)"/>
<path d="M0 0 C5.66663787 4.76558238 8.1875444 9.93142315 10 17 C10.495 18.485 10.495 18.485 11 20 C11.94633745 29.77882036 8.557567 39.82818553 2.4453125 47.57421875 C-3.50440035 53.44353008 -10.95279442 56.2818453 -19.25 56.3125 C-28.85460508 56.12674541 -37.12319959 54.02437123 -44 47 C-49.9199967 39.26453765 -52.55804507 31.04119872 -52.3203125 21.328125 C-51.17413478 12.99736985 -46.81017729 5.07497527 -40.3125 -0.1875 C-36.13768355 -3.1628356 -31.92848697 -4.71057027 -27 -6 C-26.195625 -6.2475 -25.39125 -6.495 -24.5625 -6.75 C-15.27856881 -7.65574938 -7.7846166 -5.04355442 0 0 Z " fill="#03477A" transform="translate(243,788)"/>
<path d="M0 0 C5.61 -0.12375 11.22 -0.2475 17 -0.375 C18.75441406 -0.42962402 20.50882813 -0.48424805 22.31640625 -0.54052734 C36.11136123 -0.79123731 36.11136123 -0.79123731 41.63867188 4.3894043 C46.28741704 9.88936338 47.67855678 14.01145193 47.38671875 21.34765625 C46.62126411 26.59759259 44.33935086 29.75865043 40.4375 33.375 C38 35 38 35 35 36 C36.69936375 42.22123396 40.0412418 47.02168003 43.54296875 52.34179688 C43.98511719 53.02693359 44.42726563 53.71207031 44.8828125 54.41796875 C45.28902832 55.03438232 45.69524414 55.6507959 46.11376953 56.28588867 C47 58 47 58 47 61 C43.2904646 62.20210804 39.7222519 62.90801361 35.85644531 62.04199219 C30.6890831 59.14163686 28.12459486 51.95665768 25.66723633 46.82568359 C25.17247803 45.83133301 24.67771973 44.83698242 24.16796875 43.8125 C23.74797607 42.89082031 23.3279834 41.96914063 22.89526367 41.01953125 C22.26982666 40.35308594 21.64438965 39.68664062 21 39 C18.36 39 15.72 39 13 39 C12.67 46.26 12.34 53.52 12 61 C8.04 61 4.08 61 0 61 C0 40.87 0 20.74 0 0 Z " fill="#024679" transform="translate(564,783)"/>
<path d="M0 0 C3.96 0 7.92 0 12 0 C14.97781885 3.2132447 16.55879382 5.36391302 18.5 9.125 C18.9846875 9.9809375 19.469375 10.836875 19.96875 11.71875 C20.90925015 13.3799595 21.83320045 15.05067577 22.73828125 16.73144531 C23.85286528 18.7354536 25.03880454 20.60917409 26.34375 22.4921875 C28 25 28 25 28 27 C30.38620425 24.78201151 32.06965106 22.49571333 33.77734375 19.7265625 C34.29103516 18.9015625 34.80472656 18.0765625 35.33398438 17.2265625 C35.86314453 16.36804688 36.39230469 15.50953125 36.9375 14.625 C38.48545261 12.11788657 40.0383238 9.61860606 41.64013672 7.14550781 C43.1157299 4.88164766 43.1157299 4.88164766 44.62890625 1.8984375 C47.69287932 -0.55476005 49.2777483 -0.19713022 53.14819336 -0.11865234 C54.78672523 -0.0929567 54.78672523 -0.0929567 56.45835876 -0.06674194 C57.29710037 -0.0447171 58.13584198 -0.02269226 59 0 C59.02312764 7.93613787 59.04091723 15.87226176 59.05181217 23.80842495 C59.05704008 27.49314498 59.06413605 31.17784203 59.07543945 34.86254883 C59.08627162 38.41570831 59.09227753 41.96884563 59.09487724 45.52202034 C59.0967309 46.88045666 59.10035038 48.23889171 59.10573006 49.59731865 C59.11294475 51.49382223 59.11340809 53.39034793 59.11352539 55.28686523 C59.115746 56.36830307 59.11796661 57.44974091 59.12025452 58.56394958 C59 61 59 61 58 62 C54.7 62 51.4 62 48 62 C48 49.13 48 36.26 48 23 C47.34 23 46.68 23 46 23 C45.72414063 23.58652344 45.44828125 24.17304687 45.1640625 24.77734375 C44.05009354 26.9043516 42.84111515 28.66637901 41.375 30.5625 C37.49428491 35.64393139 33.75029377 40.82192941 30 46 C26.10420129 44.4936245 24.47491606 42.26303158 22.125 38.875 C18.83852215 34.17813085 15.45784264 29.5714097 12 25 C11.97494385 26.08531006 11.9498877 27.17062012 11.92407227 28.28881836 C11.83016245 32.301316 11.72990233 36.31363382 11.62768555 40.32592773 C11.58427427 42.06514288 11.54260388 43.80440235 11.50268555 45.54370117 C11.44513232 48.03838488 11.3813958 50.5328441 11.31640625 53.02734375 C11.29133751 54.2007859 11.29133751 54.2007859 11.26576233 55.39793396 C11.11387171 60.88612829 11.11387171 60.88612829 10 62 C6.7 62 3.4 62 0 62 C0 41.54 0 21.08 0 0 Z " fill="#02477A" transform="translate(272,782)"/>
<path d="M0 0 C2.25463867 -0.03417969 2.25463867 -0.03417969 5 1 C6.76893728 3.64953129 7.80164512 6.57793798 8.92578125 9.546875 C9.27706589 10.42788879 9.62835052 11.30890259 9.99028015 12.21661377 C11.1163707 15.054108 12.2145377 17.90151974 13.3125 20.75 C14.03923103 22.59185097 14.76772971 24.43300553 15.49804688 26.2734375 C17.3237003 30.89080715 19.1192995 35.51912698 20.90240479 40.15307617 C22.03662373 43.09499401 23.18081861 46.03291375 24.32568359 48.97070312 C25.06521268 50.88134248 25.80432284 52.79214404 26.54296875 54.703125 C26.89096024 55.59344421 27.23895172 56.48376343 27.5974884 57.40106201 C27.9136058 58.22422913 28.22972321 59.04739624 28.55541992 59.89550781 C28.83528244 60.61796692 29.11514496 61.34042603 29.40348816 62.08477783 C30 64 30 64 30 67 C11.52 67 -6.96 67 -26 67 C-23.74764409 56.86439842 -23.74764409 56.86439842 -21.8203125 51.98046875 C-21.39153809 50.88847168 -20.96276367 49.79647461 -20.52099609 48.67138672 C-20.06031738 47.5217041 -19.59963867 46.37202148 -19.125 45.1875 C-18.64756348 43.98367676 -18.17012695 42.77985352 -17.67822266 41.53955078 C-5.54867849 11.09735698 -5.54867849 11.09735698 0 0 Z " fill="#F4F1EA" transform="translate(736,570)"/>
<path d="M0 0 C1.32 0 2.64 0 4 0 C7.71710458 9.01207879 11.42938012 18.02612255 15.13557434 27.04269409 C16.93226775 31.41163851 18.73551002 35.77775897 20.54768372 40.14030457 C21.80705982 43.17503624 23.05898603 46.21284321 24.3125 49.25 C24.77374268 50.35384033 25.23498535 51.45768066 25.71020508 52.5949707 C26.13197021 53.62066162 26.55373535 54.64635254 26.98828125 55.703125 C27.35477783 56.58645508 27.72127441 57.46978516 28.09887695 58.37988281 C29 61 29 61 30 67 C11.52 67 -6.96 67 -26 67 C-24.87484521 59.12391646 -24.87484521 59.12391646 -23.54467773 55.72729492 C-23.25024277 54.96507126 -22.9558078 54.2028476 -22.65245056 53.41752625 C-22.33272781 52.61329727 -22.01300507 51.8090683 -21.68359375 50.98046875 C-21.34884537 50.12302567 -21.01409698 49.26558258 -20.66920471 48.38215637 C-19.95907382 46.56790061 -19.24528696 44.75507213 -18.52807617 42.94360352 C-17.45718448 40.2372466 -16.3985081 37.52637344 -15.34179688 34.81445312 C-11.90760109 26.04687073 -8.35175041 17.34698924 -4.53515625 8.73828125 C-4.1946373 7.96993454 -3.85411835 7.20158783 -3.50328064 6.40995789 C-1.13232588 1.13232588 -1.13232588 1.13232588 0 0 Z " fill="#F3F0EA" transform="translate(283,570)"/>
<path d="M0 0 C3.96 0 7.92 0 12 0 C12 7.92 12 15.84 12 24 C20.58 24 29.16 24 38 24 C38 16.41 38 8.82 38 1 C40.88211302 0.03929566 42.69850044 -0.10581883 45.6875 -0.0625 C46.89986328 -0.04896484 46.89986328 -0.04896484 48.13671875 -0.03515625 C49.05904297 -0.01775391 49.05904297 -0.01775391 50 0 C50.99756256 3.29864889 51.0958885 6.23317245 51.03759766 9.6706543 C51.02072906 10.80830734 51.00386047 11.94596039 50.98648071 13.11808777 C50.9625827 14.34111099 50.93868469 15.56413422 50.9140625 16.82421875 C50.89282318 18.08136185 50.87158386 19.33850494 50.84970093 20.63374329 C50.80345777 23.28919933 50.75507532 25.94451332 50.703125 28.59985352 C50.63669673 32.00963375 50.57950524 35.4194952 50.52509499 38.82948589 C50.47207765 42.07781853 50.4115216 45.32600794 50.3515625 48.57421875 C50.33171295 49.80331467 50.3118634 51.03241058 50.29141235 52.29875183 C50.26823944 53.42694839 50.24506653 54.55514496 50.22119141 55.7175293 C50.20263092 56.71584274 50.18407043 57.71415619 50.16494751 58.74272156 C50 61 50 61 49 62 C45.37 62 41.74 62 38 62 C38 53.09 38 44.18 38 35 C29.42 35 20.84 35 12 35 C12 43.91 12 52.82 12 62 C8.04 62 4.08 62 0 62 C-0.15302347 54.0639459 -0.30178708 46.12784752 -0.4429636 38.19157505 C-0.50868325 34.50681052 -0.57630074 30.82210084 -0.64819336 27.13745117 C-0.71745021 23.58436412 -0.78180302 20.03121957 -0.84269524 16.47797966 C-0.86684925 15.11951384 -0.89279758 13.76107875 -0.92053413 12.40268135 C-0.95895576 10.50625504 -0.99051816 8.60969346 -1.02172852 6.71313477 C-1.05170677 5.09097801 -1.05170677 5.09097801 -1.08229065 3.43605042 C-1 1 -1 1 0 0 Z " fill="#02497C" transform="translate(123,782)"/>
<path d="M0 0 C13.86 0 27.72 0 42 0 C42 3.63 42 7.26 42 11 C32.43 11 22.86 11 13 11 C13 15.29 13 19.58 13 24 C14.79308594 23.98839844 16.58617187 23.97679687 18.43359375 23.96484375 C20.76822813 23.95546771 23.10286363 23.94636731 25.4375 23.9375 C26.62150391 23.92912109 27.80550781 23.92074219 29.02539062 23.91210938 C30.15009766 23.90888672 31.27480469 23.90566406 32.43359375 23.90234375 C33.47572021 23.89710693 34.51784668 23.89187012 35.59155273 23.88647461 C38 24 38 24 39 25 C39 28.63 39 32.26 39 36 C30.09 36 21.18 36 12 36 C12 40.29 12 44.58 12 49 C12.90355225 48.99476318 13.80710449 48.98952637 14.73803711 48.98413086 C18.07951489 48.96712314 21.42094692 48.95456667 24.76245117 48.94506836 C26.21070073 48.94002899 27.65894517 48.93319747 29.10717773 48.92456055 C31.18474588 48.91247753 33.26224697 48.90676789 35.33984375 48.90234375 C36.59144287 48.89710693 37.84304199 48.89187012 39.13256836 48.88647461 C42 49 42 49 43 50 C43 53.63 43 57.26 43 61 C29.14 61 15.28 61 1 61 C-0.32953792 58.34092416 -0.11986031 56.33434632 -0.11352539 53.35693359 C-0.11344986 52.17586029 -0.11337433 50.99478699 -0.11329651 49.77792358 C-0.10813522 48.49769318 -0.10297394 47.21746277 -0.09765625 45.8984375 C-0.0962413 44.59170074 -0.09482635 43.28496399 -0.09336853 41.93862915 C-0.08954894 38.46323742 -0.07972342 34.98788743 -0.06866455 31.51251221 C-0.05843843 27.96668065 -0.05381358 24.42084216 -0.04882812 20.875 C-0.03863122 13.91662979 -0.01905824 6.95837423 0 0 Z " fill="#03487A" transform="translate(800,783)"/>
<path d="M0 0 C1.68242658 0.04238602 3.36459189 0.09606607 5.04638672 0.15869141 C5.93139862 0.18371735 6.81641052 0.20874329 7.72824097 0.23452759 C10.56123477 0.31684846 13.3935439 0.41339067 16.22607422 0.51025391 C18.14401479 0.56848115 20.06198365 0.62578468 21.97998047 0.68212891 C26.68740712 0.82244518 31.39426808 0.97551924 36.10107422 1.13525391 C36.10107422 4.76525391 36.10107422 8.39525391 36.10107422 12.13525391 C26.20107422 12.13525391 16.30107422 12.13525391 6.10107422 12.13525391 C6.10107422 16.42525391 6.10107422 20.71525391 6.10107422 25.13525391 C8.77330078 25.10044922 8.77330078 25.10044922 11.49951172 25.06494141 C13.82502838 25.04618724 16.15054955 25.02798667 18.47607422 25.01025391 C19.65169922 24.99349609 20.82732422 24.97673828 22.03857422 24.95947266 C23.72080078 24.94980469 23.72080078 24.94980469 25.43701172 24.93994141 C26.47390137 24.92946777 27.51079102 24.91899414 28.57910156 24.90820312 C31.10107422 25.13525391 31.10107422 25.13525391 33.10107422 27.13525391 C33.33154297 29.26416016 33.33154297 29.26416016 33.28857422 31.69775391 C33.28212891 32.50341797 33.27568359 33.30908203 33.26904297 34.13916016 C33.10107422 36.13525391 33.10107422 36.13525391 32.10107422 37.13525391 C30.17439914 37.22273598 28.24455561 37.24222725 26.31591797 37.23291016 C24.56118164 37.22807617 24.56118164 37.22807617 22.77099609 37.22314453 C21.53929687 37.21476563 20.30759766 37.20638672 19.03857422 37.19775391 C17.18522461 37.19098633 17.18522461 37.19098633 15.29443359 37.18408203 C12.22996009 37.17225009 9.16551129 37.15431398 6.10107422 37.13525391 C6.10107422 41.42525391 6.10107422 45.71525391 6.10107422 50.13525391 C16.00107422 50.13525391 25.90107422 50.13525391 36.10107422 50.13525391 C36.10107422 54.09525391 36.10107422 58.05525391 36.10107422 62.13525391 C30.28035799 62.15990028 24.45967188 62.17808821 18.63891602 62.19018555 C16.6571398 62.19522658 14.67536733 62.20205929 12.69360352 62.21069336 C9.85155313 62.22276905 7.00955175 62.22848436 4.16748047 62.23291016 C2.82998497 62.24065208 2.82998497 62.24065208 1.46546936 62.24855042 C-0.65633179 62.24874567 -2.77803358 62.19735421 -4.89892578 62.13525391 C-6.6394571 60.39472259 -6.03551008 58.00522388 -6.04418945 55.63745117 C-6.05056931 54.46275772 -6.05694916 53.28806427 -6.06352234 52.07777405 C-6.06463516 50.79865646 -6.06574799 49.51953888 -6.06689453 48.20166016 C-6.07022293 46.8982518 -6.07355133 45.59484344 -6.07698059 44.25193787 C-6.08297778 41.48866956 -6.0848199 38.72543256 -6.08422852 35.9621582 C-6.08412688 32.41656917 -6.09777809 28.87118033 -6.11500072 25.32563877 C-6.12877591 21.95097591 -6.12820901 18.57635081 -6.12939453 15.20166016 C-6.13658005 13.9245668 -6.14376556 12.64747345 -6.15116882 11.3316803 C-6.14809219 10.15383469 -6.14501556 8.97598907 -6.1418457 7.76245117 C-6.14327072 6.72177994 -6.14469574 5.6811087 -6.14616394 4.60890198 C-5.70776099 0.22262678 -4.24332295 0.14720106 0 0 Z " fill="#07497B" transform="translate(508.89892578125,781.86474609375)"/>
<path d="M0 0 C13.53 0 27.06 0 41 0 C41 3.63 41 7.26 41 11 C31.43 11 21.86 11 12 11 C12 15.29 12 19.58 12 24 C20.58 24 29.16 24 38 24 C38 27.63 38 31.26 38 35 C29.42 35 20.84 35 12 35 C12 39.62 12 44.24 12 49 C21.9 49 31.8 49 42 49 C42 52.96 42 56.92 42 61 C36.17928378 61.02464638 30.35859766 61.0428343 24.5378418 61.05493164 C22.55606559 61.05997267 20.57429311 61.06680538 18.5925293 61.07543945 C15.75047891 61.08751515 12.90847753 61.09323045 10.06640625 61.09765625 C8.72891075 61.10539818 8.72891075 61.10539818 7.36439514 61.11329651 C5.24259399 61.11349177 3.1208922 61.0621003 1 61 C0 60 0 60 -0.12025452 57.60191345 C-0.11803391 56.53824051 -0.11581329 55.47456757 -0.11352539 54.37866211 C-0.11344986 53.17749252 -0.11337433 51.97632294 -0.11329651 50.73875427 C-0.10813522 49.4314888 -0.10297394 48.12422333 -0.09765625 46.77734375 C-0.09579198 45.43355868 -0.09436812 44.08977293 -0.09336853 42.74598694 C-0.08954402 39.20317723 -0.07971432 35.6604083 -0.06866455 32.11761475 C-0.05844899 28.50484784 -0.0538159 24.89207416 -0.04882812 21.27929688 C-0.03862218 14.18616187 -0.01905051 7.09313893 0 0 Z " fill="#05487B" transform="translate(351,783)"/>
<path d="M0 0 C0.86328125 1.8984375 0.86328125 1.8984375 1 4 C0.00390625 5.921875 0.00390625 5.921875 -1.4375 7.75 C-1.91058594 8.36359375 -2.38367188 8.9771875 -2.87109375 9.609375 C-3.24363281 10.06828125 -3.61617187 10.5271875 -4 11 C-6.69389995 10.39810912 -8.66012949 9.67640711 -11.1875 8.4375 C-15.32128845 6.61219081 -19.54162264 6.30082473 -24 7 C-26.29102513 8.86321004 -26.29102513 8.86321004 -26.25 11.8125 C-24.5114389 16.2458308 -22.04636331 16.95726151 -17.828125 18.85546875 C-15.17171773 19.9305065 -12.49755373 20.93678212 -9.8125 21.9375 C-3.99076546 24.22035339 0.5439633 27.15123254 3.4375 32.8125 C4.44353663 38.51337425 4.99770654 43.04153902 2.3125 48.3125 C-2.32595056 53.70313173 -6.44812961 56.48585801 -13.59375 57.29296875 C-23.17803356 57.75957203 -32.49721945 55.15011579 -40 49 C-39.42647107 45.12867972 -37.51295648 42.91827204 -35 40 C-31.58156442 40.41435583 -29.75593024 41.15792749 -26.8125 43.0625 C-22.4915402 45.6588662 -17.91175436 45.91324076 -13 45 C-10.71807298 43.72148825 -10.71807298 43.72148825 -9 42 C-8.24978756 39.54367668 -8.24978756 39.54367668 -9 37 C-12.89459912 33.22500469 -16.97712847 31.6866469 -22 30 C-28.13020304 27.94151853 -32.76669932 25.97610528 -36.78515625 20.62109375 C-38.97327332 15.90010805 -38.62095815 11.08495731 -38 6 C-35.5662812 0.95228693 -32.23404134 -2.86339851 -26.84375 -4.7578125 C-17.31317231 -7.14045692 -8.24422859 -5.1908106 0 0 Z " fill="#044578" transform="translate(899,787)"/>
<path d="M0 0 C3.96 0 7.92 0 12 0 C16.37565591 9.12459053 19.2846318 18.70400963 22.36914062 28.31982422 C23.08607984 30.54867283 23.81203669 32.77442495 24.5390625 35 C24.75680328 35.68843994 24.97454407 36.37687988 25.19888306 37.08618164 C25.74261552 38.7437846 26.36457326 40.37533837 27 42 C27.66 42.33 28.32 42.66 29 43 C29.20753906 42.08863281 29.41507813 41.17726563 29.62890625 40.23828125 C32.1819327 29.38578419 35.56215631 18.89075128 39.19384766 8.35498047 C40.14533233 5.5754465 41.07096113 2.7871166 42 0 C46.29 0 50.58 0 55 0 C54.4163516 5.32465595 53.14484461 9.92116179 51.26953125 14.92578125 C50.99662766 15.67224411 50.72372406 16.41870697 50.44255066 17.18778992 C49.57230214 19.56511642 48.69298404 21.93894757 47.8125 24.3125 C46.66949691 27.41141645 45.53086244 30.51191256 44.39453125 33.61328125 C44.11368683 34.37746368 43.83284241 35.14164612 43.54348755 35.9289856 C41.18283153 42.39537366 38.9922292 48.91266667 36.87471008 55.46247864 C35.10267813 60.89732187 35.10267813 60.89732187 34 62 C31.81360547 62.07258946 29.62499611 62.08373783 27.4375 62.0625 C25.64119141 62.04896484 25.64119141 62.04896484 23.80859375 62.03515625 C22.88175781 62.02355469 21.95492187 62.01195312 21 62 C18.77953313 56.1260709 16.63598049 50.2287864 14.53125 44.3125 C14.04887878 42.95958862 14.04887878 42.95958862 13.5567627 41.5793457 C12.19361252 37.75604111 10.83198253 33.93219561 9.47021484 30.10839844 C8.47025555 27.30124346 7.46951886 24.49436644 6.46875 21.6875 C6.0139325 20.40903198 6.0139325 20.40903198 5.54992676 19.10473633 C5.25952515 18.29029053 4.96912354 17.47584473 4.66992188 16.63671875 C4.25407837 15.46761963 4.25407837 15.46761963 3.82983398 14.27490234 C3.01780897 12.04882142 2.1523437 9.84879587 1.28320312 7.64453125 C0 4 0 4 0 0 Z " fill="#05487A" transform="translate(626,782)"/>
<path d="M0 0 C-0.82292254 3.98467756 -2.66053731 6.67947232 -5 10 C-7.69701834 9.46059633 -9.73890199 8.64475866 -12.25 7.4375 C-16.34720939 5.64497089 -19.55237147 5.55523715 -24 6 C-26.17500647 7.00488226 -26.17500647 7.00488226 -27 9 C-27.01276956 11.49774921 -27.01276956 11.49774921 -26 14 C-23.60404322 15.74561248 -23.60404322 15.74561248 -20.5625 17 C-19.4796875 17.5053125 -18.396875 18.010625 -17.28125 18.53125 C-16.1984375 19.0159375 -15.115625 19.500625 -14 20 C-6.46254669 23.39599545 -1.63839066 25.97449398 2.3125 33.5 C3.8818877 39.20686437 2.95814023 43.08867789 0.203125 48.171875 C-2.58926655 52.41485957 -6.30344901 54.41878298 -11 56 C-20.35909659 56.94449599 -29.39995966 55.9561557 -37.5625 51.0625 C-40 49 -40 49 -40.8359375 47.10546875 C-41 45 -41 45 -39.78515625 43.078125 C-39.21667969 42.47484375 -38.64820313 41.8715625 -38.0625 41.25 C-37.49660156 40.63640625 -36.93070312 40.0228125 -36.34765625 39.390625 C-35.68056641 38.70226562 -35.68056641 38.70226562 -35 38 C-32.43144816 39.23691651 -30.20296685 40.53135544 -27.8125 42.125 C-23.65343345 44.51825597 -19.69729322 44.78892763 -15 44 C-12.4810733 42.68236671 -12.4810733 42.68236671 -11 41 C-10.68127433 37.29512337 -10.68127433 37.29512337 -12 34 C-15.7885959 31.78346059 -19.87240569 30.45950915 -24 29 C-30.58119397 26.20245663 -36.14594619 22.91510834 -39 16 C-39.74915483 10.10405418 -39.47351482 4.97870457 -36 0 C-25.03186092 -11.22321208 -12.15846581 -6.83130296 0 0 Z " fill="#044679" transform="translate(482,788)"/>
<path d="M0 0 C2.61919057 1.50180594 4.89014914 2.96838849 6.99609375 5.14453125 C6.99609375 6.13453125 6.99609375 7.12453125 6.99609375 8.14453125 C5.24609375 9.75 5.24609375 9.75 2.99609375 11.33203125 C2.25359375 11.86183594 1.51109375 12.39164063 0.74609375 12.9375 C0.16859375 13.33582031 -0.40890625 13.73414063 -1.00390625 14.14453125 C-1.59558594 13.84804688 -2.18726563 13.5515625 -2.796875 13.24609375 C-10.51925322 9.36820664 -10.51925322 9.36820664 -19.00390625 9.14453125 C-23.79087209 11.16909387 -28.02338403 14.0747205 -30.37890625 18.859375 C-32.12087311 25.22844132 -32.46617217 33.27660329 -29.37890625 39.26953125 C-25.66527573 43.76497872 -22.33407865 46.15017942 -16.56640625 47.08203125 C-10.67318648 47.51930219 -6.86992104 45.38854111 -2.00390625 42.14453125 C2.39680738 42.37614776 4.76266753 44.28063945 7.99609375 47.14453125 C5.95816904 52.64692797 1.46822323 55.38217848 -3.50390625 57.95703125 C-11.77037716 60.670453 -20.49142614 60.30132599 -28.37890625 56.70703125 C-35.6214408 52.57810969 -41.21928512 47.32658869 -44.00390625 39.33203125 C-46.08493343 30.62955394 -46.21265104 21.20774939 -42.00390625 13.14453125 C-32.31299314 -2.12388581 -16.87972276 -8.05558439 0 0 Z " fill="#044679" transform="translate(774.00390625,784.85546875)"/>
<path d="M0 0 C1.3912047 0.00025098 2.78241565 0.0058083 4.17358398 0.01586914 C4.82129761 0.01687622 5.46901123 0.0178833 6.13635254 0.0189209 C8.56414552 0.02416696 10.99191334 0.03812814 13.41967773 0.05102539 C21.55624023 0.08196289 21.55624023 0.08196289 29.85717773 0.11352539 C29.85717773 12.98352539 29.85717773 25.85352539 29.85717773 39.11352539 C24.43280273 39.13415039 19.00842773 39.15477539 13.41967773 39.17602539 C11.70594971 39.18512939 9.99222168 39.1942334 8.2265625 39.20361328 C6.87557046 39.20653255 5.52457755 39.20908108 4.17358398 39.21118164 C3.46617065 39.21629761 2.75875732 39.22141357 2.02990723 39.22668457 C0.30525156 39.22699571 -1.41929064 39.175783 -3.14282227 39.11352539 C-4.95847663 37.29787103 -4.27144126 34.80082577 -4.2817688 32.38464355 C-4.27974457 31.58361206 -4.27772034 30.78258057 -4.27563477 29.95727539 C-4.27659149 29.13980835 -4.27754822 28.32234131 -4.27853394 27.48010254 C-4.27921572 25.74837162 -4.27736156 24.01663815 -4.27319336 22.28491211 C-4.26784506 19.62486057 -4.27313839 16.96497789 -4.27954102 14.30493164 C-4.27888023 12.62654585 -4.27759907 10.94816016 -4.27563477 9.26977539 C-4.277659 8.4687439 -4.27968323 7.6677124 -4.2817688 6.84240723 C-4.25317883 0.15363382 -4.25317883 0.15363382 0 0 Z " fill="#04477B" transform="translate(473.142822265625,286.886474609375)"/>
<path d="M0 0 C1.39120471 0.00015906 2.78241534 0.00585033 4.17358398 0.01586914 C4.90463852 0.01728409 5.63569305 0.01869904 6.38890076 0.02015686 C8.73253406 0.02577131 11.07607313 0.03832617 13.41967773 0.05102539 C15.00496282 0.05603853 16.59024939 0.06060176 18.17553711 0.06469727 C22.06945383 0.07574542 25.96329979 0.09301967 29.85717773 0.11352539 C29.88182623 5.50699527 29.90001304 10.90043264 29.91210938 16.29394531 C29.91715005 18.13021414 29.9239825 19.96647893 29.93261719 21.80273438 C29.94469446 24.4362894 29.95040854 27.06979155 29.95483398 29.70336914 C29.95999527 30.52941147 29.96515656 31.3554538 29.97047424 32.20652771 C29.97066978 34.17588907 29.91921925 36.14514153 29.85717773 38.11352539 C28.18044124 39.79026188 26.12862698 39.24140356 23.890625 39.25247192 C22.8531311 39.24943558 22.8531311 39.24943558 21.79467773 39.24633789 C21.08819092 39.24729462 20.3817041 39.24825134 19.65380859 39.24923706 C18.1574698 39.24991872 16.66112806 39.24806544 15.16479492 39.24389648 C12.86687616 39.23854796 10.56915287 39.2438419 8.27124023 39.25024414 C6.82071897 39.24958336 5.37019782 39.24830219 3.91967773 39.24633789 C2.88218384 39.24937424 2.88218384 39.24937424 1.82373047 39.25247192 C-3.02787003 39.22847763 -3.02787003 39.22847763 -4.14282227 38.11352539 C-4.24381714 35.38628261 -4.28252756 32.68490016 -4.27563477 29.95727539 C-4.27659149 29.13980835 -4.27754822 28.32234131 -4.27853394 27.48010254 C-4.27921572 25.74837162 -4.27736156 24.01663815 -4.27319336 22.28491211 C-4.26784506 19.62486057 -4.27313839 16.96497789 -4.27954102 14.30493164 C-4.27888023 12.62654585 -4.27759907 10.94816016 -4.27563477 9.26977539 C-4.277659 8.4687439 -4.27968323 7.6677124 -4.2817688 6.84240723 C-4.25317883 0.15363382 -4.25317883 0.15363382 0 0 Z " fill="#00477B" transform="translate(518.142822265625,336.886474609375)"/>
<path d="M0 0 C1.0374939 0.00303635 1.0374939 0.00303635 2.09594727 0.00613403 C2.80243408 0.00517731 3.5089209 0.00422058 4.23681641 0.00323486 C5.7331552 0.00255321 7.22949694 0.00440649 8.72583008 0.00857544 C11.02374884 0.01392396 13.32147213 0.00863003 15.61938477 0.00222778 C17.06990603 0.00288857 18.52042718 0.00416974 19.97094727 0.00613403 C20.66260986 0.0041098 21.35427246 0.00208557 22.06689453 0 C26.91849503 0.0239943 26.91849503 0.0239943 28.03344727 1.13894653 C28.12206719 3.95058033 28.14867082 6.73752909 28.13110352 9.54910278 C28.12968857 10.39113754 28.12827362 11.2331723 28.1268158 12.10072327 C28.1211999 14.80099988 28.10864475 17.50119481 28.09594727 20.20144653 C28.09093431 22.02761721 28.08637105 23.85378919 28.08227539 25.67996216 C28.07122531 30.16632195 28.05395006 34.65262038 28.03344727 39.13894653 C23.35205473 39.16359941 18.67069967 39.18178392 13.98925781 39.19387817 C12.39550112 39.19891811 10.80174908 39.20575003 9.20800781 39.21438599 C6.92194474 39.22646652 4.63594259 39.23217808 2.34985352 39.23660278 C1.63318008 39.24176407 0.91650665 39.24692535 0.17811584 39.25224304 C-1.53718946 39.25243916 -3.2523654 39.20086661 -4.96655273 39.13894653 C-6.7822071 37.32329217 -6.09517173 34.82624692 -6.10549927 32.4100647 C-6.10347504 31.6090332 -6.10145081 30.80800171 -6.09936523 29.98269653 C-6.10032196 29.16522949 -6.10127869 28.34776245 -6.1022644 27.50552368 C-6.10294619 25.77379276 -6.10109203 24.04205929 -6.09692383 22.31033325 C-6.09157552 19.65028171 -6.09686886 16.99039903 -6.10327148 14.33035278 C-6.1026107 12.65196699 -6.10132954 10.97358131 -6.09936523 9.29519653 C-6.10138947 8.49416504 -6.1034137 7.69313354 -6.10549927 6.86782837 C-6.07627241 0.03005109 -6.07627241 0.03005109 0 0 Z " fill="#004579" transform="translate(474.966552734375,336.8610534667969)"/>
<path d="M0 0 C5.259375 -0.020625 10.51875 -0.04125 15.9375 -0.0625 C17.599021 -0.071604 19.26054199 -0.08070801 20.97241211 -0.09008789 C22.26928955 -0.09258545 23.56616699 -0.09508301 24.90234375 -0.09765625 C25.93107605 -0.1053302 25.93107605 -0.1053302 26.98059082 -0.11315918 C28.65415231 -0.11347054 30.3275958 -0.06222837 32 0 C33 1 33 1 33.11352539 4.51000977 C33.11336626 6.07048422 33.10767142 7.63096393 33.09765625 9.19140625 C33.0962413 10.01124496 33.09482635 10.83108368 33.09336853 11.67576599 C33.08775289 14.30471382 33.07519779 16.93357773 33.0625 19.5625 C33.05748701 21.34049357 33.05292376 23.11848846 33.04882812 24.89648438 C33.03862752 29.26438158 33.01905532 33.6320964 33 38 C22.11 38 11.22 38 0 38 C0 25.46 0 12.92 0 0 Z " fill="#02467A" transform="translate(514,287)"/>
<path d="M0 0 C4.25784831 2.64720157 6.32415738 6.71891605 8.0859375 11.296875 C9.38365312 17.67731014 7.74767172 24.44701882 5.0859375 30.296875 C2.24825409 34.25169239 -1.10741369 37.1790497 -5.9140625 38.296875 C-12.45259338 39.10161726 -17.4801967 38.09195587 -22.9140625 34.296875 C-27.72154655 29.36287821 -29.20248935 24.67207679 -29.2265625 17.859375 C-29.11705143 12.14547396 -28.72187971 8.09682717 -24.51953125 3.90625 C-17.09693845 -2.63314821 -9.23699481 -3.43551386 0 0 Z " fill="#F2F0EA" transform="translate(232.9140625,794.703125)"/>
<path d="M0 0 C3.63 0 7.26 0 11 0 C12 1 12 1 12.12025452 3.43605042 C12.1169236 5.05820717 12.1169236 5.05820717 12.11352539 6.71313477 C12.11344986 7.9343251 12.11337433 9.15551544 12.11329651 10.41371155 C12.10818911 11.75627686 12.10297311 13.09884175 12.09765625 14.44140625 C12.09579199 15.80761158 12.09436813 17.17381757 12.09336853 18.5400238 C12.08954394 22.14201695 12.07971417 25.74397 12.06866455 29.34594727 C12.05844916 33.01903745 12.05387064 36.69213409 12.04882812 40.36523438 C12.03809184 47.57684334 12.02049553 54.78841095 12 62 C8.04 62 4.08 62 0 62 C0 41.54 0 21.08 0 0 Z " fill="#024D7E" transform="translate(699,782)"/>
<path d="M0 0 C2.89684158 -0.10829314 5.78961019 -0.18743954 8.6875 -0.25 C9.50412109 -0.28351562 10.32074219 -0.31703125 11.16210938 -0.3515625 C15.22743314 -0.4173977 17.45849863 -0.3137931 21.046875 1.765625 C23.66934916 4.76573544 23.66849158 6.27522801 23.43359375 10.09765625 C22.77657726 12.98024213 21.33462725 14.28336232 19 16 C15.69428083 17.65285959 12.004622 17.1005118 8.375 17.0625 C5.61125 17.041875 2.8475 17.02125 0 17 C0 11.39 0 5.78 0 0 Z " fill="#F0EFEA" transform="translate(576,794)"/>
<path d="M0 0 C1.04993406 3.14980219 1.09345829 5.25564952 1.03759766 8.55712891 C1.02072906 9.69485748 1.00386047 10.83258606 0.98648071 12.00479126 C0.9625827 13.23297577 0.93868469 14.46116028 0.9140625 15.7265625 C0.89282318 16.98512054 0.87158386 18.24367859 0.84970093 19.54037476 C0.80341824 22.20180496 0.75502096 24.86309732 0.703125 27.52441406 C0.63676372 30.94207102 0.57954755 34.35980873 0.52509499 37.77767372 C0.47206553 41.03155793 0.41151074 44.28529951 0.3515625 47.5390625 C0.33171295 48.77129547 0.3118634 50.00352844 0.29141235 51.27310181 C0.26823944 52.40452606 0.24506653 53.53595032 0.22119141 54.70166016 C0.20263092 55.70298981 0.18407043 56.70431946 0.16494751 57.73599243 C0 60 0 60 -1 61 C-4.63 61 -8.26 61 -12 61 C-12 52.09 -12 43.18 -12 34 C-20.58 34 -29.16 34 -38 34 C-38 42.91 -38 51.82 -38 61 C-41.96 61 -45.92 61 -50 61 C-50 59.02 -50 57.04 -50 55 C-49.67 56.32 -49.34 57.64 -49 59 C-46.03 59 -43.06 59 -40 59 C-40.01047363 58.25314941 -40.02094727 57.50629883 -40.03173828 56.73681641 C-40.0732077 53.36624492 -40.09929729 49.995727 -40.125 46.625 C-40.14175781 45.449375 -40.15851563 44.27375 -40.17578125 43.0625 C-40.18222656 41.94101562 -40.18867188 40.81953125 -40.1953125 39.6640625 C-40.20578613 38.62717285 -40.21625977 37.5902832 -40.22705078 36.52197266 C-40 34 -40 34 -38 32 C-35.52563477 31.74121094 -35.52563477 31.74121094 -32.44140625 31.734375 C-30.77948242 31.73050781 -30.77948242 31.73050781 -29.08398438 31.7265625 C-27.92189453 31.73429688 -26.75980469 31.74203125 -25.5625 31.75 C-24.40427734 31.74226562 -23.24605469 31.73453125 -22.05273438 31.7265625 C-20.94349609 31.72914063 -19.83425781 31.73171875 -18.69140625 31.734375 C-17.16302124 31.73775879 -17.16302124 31.73775879 -15.60375977 31.74121094 C-13 32 -13 32 -10 34 C-9.65942383 36.52197266 -9.65942383 36.52197266 -9.70703125 39.6640625 C-9.7215332 41.34628906 -9.7215332 41.34628906 -9.73632812 43.0625 C-9.76146484 44.238125 -9.78660156 45.41375 -9.8125 46.625 C-9.83280273 48.40003906 -9.83280273 48.40003906 -9.85351562 50.2109375 C-9.88896084 53.14107539 -9.93837231 56.07031459 -10 59 C-7.36 59 -4.72 59 -2 59 C-2.00444122 58.31983826 -2.00888245 57.63967651 -2.01345825 56.93890381 C-2.05766999 49.86635436 -2.08785752 42.7938441 -2.10986328 35.72119141 C-2.11992719 33.08087571 -2.13357952 30.44057117 -2.15087891 27.80029297 C-2.17510971 24.00745897 -2.18647923 20.21477221 -2.1953125 16.421875 C-2.20563507 15.23946228 -2.21595764 14.05704956 -2.22659302 12.83880615 C-2.22681961 11.1875473 -2.22681961 11.1875473 -2.22705078 9.50292969 C-2.231492 8.53474304 -2.23593323 7.5665564 -2.24050903 6.56903076 C-1.9915915 3.91018338 -1.35558554 2.27725613 0 0 Z " fill="#043971" transform="translate(173,783)"/>
<path d="M0 0 C0.33 0 0.66 0 1 0 C1.33 19.47 1.66 38.94 2 59 C14.87 59 27.74 59 41 59 C41 56.36 41 53.72 41 51 C31.43 51 21.86 51 12 51 C12 50.67 12 50.34 12 50 C22.23 50 32.46 50 43 50 C43 53.63 43 57.26 43 61 C29.14 61 15.28 61 1 61 C-0.32953792 58.34092416 -0.11986031 56.33434632 -0.11352539 53.35693359 C-0.11344986 52.17586029 -0.11337433 50.99478699 -0.11329651 49.77792358 C-0.10813522 48.49769318 -0.10297394 47.21746277 -0.09765625 45.8984375 C-0.0962413 44.59170074 -0.09482635 43.28496399 -0.09336853 41.93862915 C-0.08954894 38.46323742 -0.07972342 34.98788743 -0.06866455 31.51251221 C-0.05843843 27.96668055 -0.05386833 24.42084215 -0.04882812 20.875 C-0.03810066 13.91664951 -0.02103092 6.95832676 0 0 Z " fill="#3B5F84" transform="translate(800,783)"/>
<path d="M0 0 C3.63 0 7.26 0 11 0 C12.63791517 1.63791517 12.13567543 3.50520084 12.14526367 5.76342773 C12.15483345 7.28521889 12.15483345 7.28521889 12.16459656 8.8377533 C12.16570938 9.94188065 12.1668222 11.046008 12.16796875 12.18359375 C12.17129715 13.30943375 12.17462555 14.43527374 12.17805481 15.5952301 C12.18312894 17.98185821 12.18546299 20.36849345 12.18530273 22.75512695 C12.18748851 26.41824974 12.2056374 30.08107122 12.22460938 33.74414062 C12.22754326 36.05729063 12.22952809 38.37044208 12.23046875 40.68359375 C12.23765427 41.78569687 12.24483978 42.88779999 12.25224304 44.02330017 C12.24916641 45.04097977 12.24608978 46.05865936 12.24291992 47.10717773 C12.24434494 48.00572983 12.24576996 48.90428192 12.24723816 49.83006287 C12 52 12 52 10 54 C10 36.84 10 19.68 10 2 C7.03 2 4.06 2 1 2 C1 21.14 1 40.28 1 60 C4.3 60 7.6 60 11 60 C11 60.33 11 60.66 11 61 C7.37 61 3.74 61 0 61 C0 40.87 0 20.74 0 0 Z " fill="#032961" transform="translate(699,782)"/>
<path d="M0 0 C0.33 0 0.66 0 1 0 C1.33 19.47 1.66 38.94 2 59 C14.87 59 27.74 59 41 59 C41 56.36 41 53.72 41 51 C31.76 51 22.52 51 13 51 C13 50.67 13 50.34 13 50 C22.57 50 32.14 50 42 50 C42 53.63 42 57.26 42 61 C36.17928378 61.02464638 30.35859766 61.0428343 24.5378418 61.05493164 C22.55606559 61.05997267 20.57429311 61.06680538 18.5925293 61.07543945 C15.75047891 61.08751515 12.90847753 61.09323045 10.06640625 61.09765625 C8.72891075 61.10539818 8.72891075 61.10539818 7.36439514 61.11329651 C5.24259399 61.11349177 3.1208922 61.0621003 1 61 C0 60 0 60 -0.12025452 57.60191345 C-0.11803391 56.53824051 -0.11581329 55.47456757 -0.11352539 54.37866211 C-0.11344986 53.17749252 -0.11337433 51.97632294 -0.11329651 50.73875427 C-0.10813522 49.4314888 -0.10297394 48.12422333 -0.09765625 46.77734375 C-0.09579198 45.43355868 -0.09436812 44.08977293 -0.09336853 42.74598694 C-0.08954402 39.20317723 -0.07971432 35.6604083 -0.06866455 32.11761475 C-0.05844899 28.50484773 -0.0538706 24.89207416 -0.04882812 21.27929688 C-0.03809198 14.1861812 -0.02101636 7.09309326 0 0 Z " fill="#194776" transform="translate(351,783)"/>
<path d="M0 0 C0.66 0 1.32 0 2 0 C2.02312821 7.67536627 2.04091753 15.35072896 2.05181217 23.02612209 C2.05703995 26.58977422 2.06413569 30.15340257 2.07543945 33.71704102 C2.08834176 37.81006097 2.09322906 41.9030558 2.09765625 45.99609375 C2.10281754 47.28148544 2.10797882 48.56687714 2.11329651 49.89122009 C2.11337204 51.07236893 2.11344757 52.25351776 2.11352539 53.47045898 C2.115746 54.51636703 2.11796661 55.56227509 2.12025452 56.63987732 C2 59 2 59 1 60 C-2.3 60 -5.6 60 -9 60 C-9 47.46 -9 34.92 -9 22 C-8.67 22 -8.34 22 -8 22 C-8 33.88 -8 45.76 -8 58 C-5.36 58 -2.72 58 0 58 C0 38.86 0 19.72 0 0 Z " fill="#003069" transform="translate(329,784)"/>
<path d="M0 0 C8.58 0 17.16 0 26 0 C26 3.63 26 7.26 26 11 C17.09 11 8.18 11 -1 11 C-1 15.29 -1 19.58 -1 24 C8.9 24 18.8 24 29 24 C29 24.33 29 24.66 29 25 C24.60343827 25.02465504 20.2069128 25.04283842 15.81030273 25.05493164 C14.31355082 25.05997121 12.81680384 25.06680287 11.32006836 25.07543945 C9.17300193 25.08752159 7.02600038 25.09323191 4.87890625 25.09765625 C2.93866577 25.10551147 2.93866577 25.10551147 0.95922852 25.11352539 C-2 25 -2 25 -3 24 C-3.12537741 21.85692104 -3.17574364 19.70921114 -3.1875 17.5625 C-3.20167969 16.38816406 -3.21585938 15.21382812 -3.23046875 14.00390625 C-3 11 -3 11 -1 9 C1.52197266 8.77294922 1.52197266 8.77294922 4.6640625 8.8046875 C5.78554688 8.81113281 6.90703125 8.81757812 8.0625 8.82421875 C9.238125 8.84097656 10.41375 8.85773437 11.625 8.875 C13.40003906 8.88853516 13.40003906 8.88853516 15.2109375 8.90234375 C18.14082523 8.92597188 21.0703134 8.95891486 24 9 C24 6.36 24 3.72 24 1 C16.08 1 8.16 1 0 1 C0 0.67 0 0.34 0 0 Z " fill="#194676" transform="translate(813,808)"/>
<path d="M0 0 C0.33 0 0.66 0 1 0 C1.02464849 5.39346988 1.04283531 10.78690725 1.05493164 16.18041992 C1.05997231 18.01668875 1.06680477 19.85295354 1.07543945 21.68920898 C1.08751672 24.32276401 1.09323081 26.95626616 1.09765625 29.58984375 C1.10281754 30.41588608 1.10797882 31.24192841 1.11329651 32.09300232 C1.11349205 34.06236368 1.06204152 36.03161614 1 38 C0 39 0 39 -3.05102539 39.11352539 C-4.39991271 39.11336634 -5.74880614 39.10767612 -7.09765625 39.09765625 C-8.16094398 39.09553383 -8.16094398 39.09553383 -9.24571228 39.09336853 C-11.51801712 39.08775443 -13.79022475 39.07519963 -16.0625 39.0625 C-17.59960796 39.05748681 -19.13671745 39.05292359 -20.67382812 39.04882812 C-24.44925642 39.03778042 -28.22461171 39.02050641 -32 39 C-31.67 38.01 -31.34 37.02 -31 36 C-21.1 36.33 -11.2 36.66 -1 37 C-1.01160156 34.49664062 -1.02320313 31.99328125 -1.03515625 29.4140625 C-1.04295059 26.99479296 -1.04902521 24.5755248 -1.05493164 22.15625 C-1.05996653 20.47232438 -1.06679481 18.78840314 -1.07543945 17.10449219 C-1.08754196 14.68683797 -1.09323668 12.26924144 -1.09765625 9.8515625 C-1.10281754 9.0963028 -1.10797882 8.34104309 -1.11329651 7.56289673 C-1.11387171 2.22774341 -1.11387171 2.22774341 0 0 Z " fill="#1B4A77" transform="translate(547,337)"/>
<path d="M0 0 C0 0.66 0 1.32 0 2 C-17.82 2 -35.64 2 -54 2 C-54 1.34 -54 0.68 -54 0 C-46.63116948 -0.1679713 -39.26219645 -0.32790864 -31.89306641 -0.48217773 C-29.3845624 -0.53565045 -26.87609735 -0.59098374 -24.36767578 -0.64819336 C-20.76864017 -0.72995731 -17.16951892 -0.80509744 -13.5703125 -0.87890625 C-12.44319855 -0.90594131 -11.31608459 -0.93297638 -10.15481567 -0.96083069 C-9.11388763 -0.98092697 -8.07295959 -1.00102325 -7.00048828 -1.02172852 C-5.62148849 -1.05170677 -5.62148849 -1.05170677 -4.21463013 -1.08229065 C-2 -1 -2 -1 0 0 Z " fill="#FAFAF4" transform="translate(313,635)"/>
<path d="M0 0 C7.59 0 15.18 0 23 0 C23 3.63 23 7.26 23 11 C13.43 11 3.86 11 -6 11 C-6.33 10.34 -6.66 9.68 -7 9 C2.24 9 11.48 9 21 9 C21 6.36 21 3.72 21 1 C14.07 1 7.14 1 0 1 C0 0.67 0 0.34 0 0 Z " fill="#013169" transform="translate(522,783)"/>
<path d="M0 0 C2.35424675 -0.02726927 4.70816962 -0.04696719 7.0625 -0.0625 C8.37347656 -0.07410156 9.68445313 -0.08570313 11.03515625 -0.09765625 C14.8163519 -0.00452335 18.27920707 0.38551274 22 1 C22 1.33 22 1.66 22 2 C15.4 2 8.8 2 2 2 C2 5.3 2 8.6 2 12 C9.92 12 17.84 12 26 12 C26 12.33 26 12.66 26 13 C17.42 13 8.84 13 0 13 C0 8.71 0 4.42 0 0 Z " fill="#FAFAF5" transform="translate(515,794)"/>
<path d="M0 0 C5.43074748 0.33942172 9.1611893 3.40909684 13 7 C19.80819635 15.10998334 21.43172415 22.63862049 21 33 C20.01 33.495 20.01 33.495 19 34 C18.90203125 33.01 18.8040625 32.02 18.703125 31 C17.65398631 21.38614094 16.41447687 13.88487138 9 7 C9 6.34 9 5.68 9 5 C8.2575 4.731875 7.515 4.46375 6.75 4.1875 C4.13363446 3.05770579 2.19812889 1.79106798 0 0 Z " fill="#124072" transform="translate(233,784)"/>
<path d="M0 0 C3.46118569 2.75595926 4.75913573 6.61681348 6.390625 10.58984375 C6.69949646 11.33077774 7.00836792 12.07171173 7.32659912 12.83509827 C7.97580756 14.39946251 8.62108814 15.96546183 9.26269531 17.53295898 C10.24730651 19.93094012 11.25174375 22.31993989 12.2578125 24.70898438 C12.88663963 26.23126622 13.51428427 27.75403719 14.140625 29.27734375 C14.44260803 29.99099594 14.74459106 30.70464813 15.0557251 31.43992615 C17.07274716 36.43786788 17.07274716 36.43786788 16.67871094 39.48266602 C16.45473633 39.98338623 16.23076172 40.48410645 16 41 C14.24832829 36.87570795 12.49897192 32.75043758 10.75 28.625 C10.01330078 26.89056641 10.01330078 26.89056641 9.26171875 25.12109375 C7.05373114 19.910243 4.85177582 14.696574 2.703125 9.4609375 C2.39536133 8.71376465 2.08759766 7.9665918 1.77050781 7.19677734 C0.93659903 4.81923894 0.43911023 2.47830327 0 0 Z " fill="#0E3E6F" transform="translate(814,637)"/>
<path d="M0 0 C0.33 0 0.66 0 1 0 C1 10.23 1 20.46 1 31 C-3.5 28.75 -3.5 28.75 -5 25 C-3.515 25.99 -3.515 25.99 -2 27 C-1.97494385 26.25314941 -1.9498877 25.50629883 -1.92407227 24.73681641 C-1.80831787 21.36602733 -1.68549872 17.99553217 -1.5625 14.625 C-1.50352539 12.8615625 -1.50352539 12.8615625 -1.44335938 11.0625 C-1.38051758 9.38027344 -1.38051758 9.38027344 -1.31640625 7.6640625 C-1.27974854 6.62717285 -1.24309082 5.5902832 -1.20532227 4.52197266 C-1 2 -1 2 0 0 Z " fill="#DCE5E4" transform="translate(603,195)"/>
<path d="M0 0 C3.04516202 2.83332467 5.16868601 5.65500311 7.25 9.25 C7.77078125 10.14203125 8.2915625 11.0340625 8.828125 11.953125 C9.21484375 12.62859375 9.6015625 13.3040625 10 14 C9 15 9 15 6.05859375 15.09765625 C4.26615234 15.08025391 4.26615234 15.08025391 2.4375 15.0625 C0.64119141 15.04896484 0.64119141 15.04896484 -1.19140625 15.03515625 C-2.11824219 15.02355469 -3.04507813 15.01195312 -4 15 C-4.8638129 13.54735962 -5.71580454 12.0876837 -6.5625 10.625 C-7.03816406 9.81289063 -7.51382813 9.00078125 -8.00390625 8.1640625 C-8.33261719 7.44992187 -8.66132812 6.73578125 -9 6 C-8.67 5.34 -8.34 4.68 -8 4 C-4 10.75 -4 10.75 -4 13 C-0.37 13 3.26 13 7 13 C6.24203125 11.84371094 6.24203125 11.84371094 5.46875 10.6640625 C4.8190625 9.66117188 4.169375 8.65828125 3.5 7.625 C2.8503125 6.62726562 2.200625 5.62953125 1.53125 4.6015625 C0 2 0 2 0 0 Z " fill="#1C4270" transform="translate(602,829)"/>
<path d="M0 0 C4.23155389 1.72823364 7.35574481 4.71378004 10.75 7.6875 C11.36891113 8.22407227 11.98782227 8.76064453 12.62548828 9.31347656 C14.42065296 10.87150858 16.21094247 12.43496268 18 14 C19.33417969 15.16208984 19.33417969 15.16208984 20.6953125 16.34765625 C22.46733621 17.89420741 24.23606827 19.44423412 26 21 C23 21 23 21 21 20 C21 19.34 21 18.68 21 18 C20.45085938 17.76925781 19.90171875 17.53851563 19.3359375 17.30078125 C16.34623582 15.63594737 14.12452882 13.52249401 11.625 11.1875 C8.57450311 8.36160462 5.54181265 5.55794463 2.3125 2.9375 C1.549375 2.298125 0.78625 1.65875 0 1 C0 0.67 0 0.34 0 0 Z " fill="#0D386C" transform="translate(685,297)"/>
<path d="M0 0 C4.13860017 0.52935584 6.1749167 2.7457295 9.125 5.5625 C14.21456958 10.32326831 19.49344049 14.72375639 25 19 C24.34 19.33 23.68 19.66 23 20 C17.43074883 15.7868549 12.10535063 11.40613525 6.9453125 6.69921875 C4.90560957 4.84346716 4.90560957 4.84346716 2 3 C2 2.34 2 1.68 2 1 C1.34 0.67 0.68 0.34 0 0 Z " fill="#113F71" transform="translate(567,197)"/>
<path d="M0 0 C9.09182619 4.02668293 16.70061648 12.38549691 24 19 C20.03990775 19 18.85479241 17.59219817 15.8125 15.125 C14.91144531 14.40570313 14.01039063 13.68640625 13.08203125 12.9453125 C12.39496094 12.30335938 11.70789063 11.66140625 11 11 C11 10.34 11 9.68 11 9 C10.484375 8.773125 9.96875 8.54625 9.4375 8.3125 C6.10452995 6.51782382 2.85296329 4.50034985 0 2 C0 1.34 0 0.68 0 0 Z " fill="#0D396D" transform="translate(518,155)"/>
<path d="M0 0 C0.33 0 0.66 0 1 0 C1 11.88 1 23.76 1 36 C0.67 36 0.34 36 0 36 C0 25.44 0 14.88 0 4 C-0.66 4 -1.32 4 -2 4 C-1.34 2.68 -0.68 1.36 0 0 Z " fill="#FCFCF9" transform="translate(318,806)"/>
<path d="M0 0 C2.70942393 -0.10861833 5.414439 -0.18758577 8.125 -0.25 C8.88554688 -0.28351562 9.64609375 -0.31703125 10.4296875 -0.3515625 C15.80027908 -0.44415891 18.71669493 0.4729558 23 4 C24.9375 6.0625 24.9375 6.0625 26 8 C25.67 8.99 25.34 9.98 25 11 C24.1028125 9.8553125 24.1028125 9.8553125 23.1875 8.6875 C19.78488452 4.36789787 19.78488452 4.36789787 15 2 C12.43365139 1.77281504 9.88321893 1.58391816 7.3125 1.4375 C6.61060547 1.39431641 5.90871094 1.35113281 5.18554688 1.30664062 C3.45724794 1.2008264 1.7286489 1.09993419 0 1 C0 0.67 0 0.34 0 0 Z " fill="#07346C" transform="translate(583,784)"/>
<path d="M0 0 C1.65 0 3.3 0 5 0 C5 0.66 5 1.32 5 2 C3.35 2 1.7 2 0 2 C0.33 2.99 0.66 3.98 1 5 C0.67 5.66 0.34 6.32 0 7 C-0.66 7 -1.32 7 -2 7 C-2.12117187 7.63808594 -2.24234375 8.27617188 -2.3671875 8.93359375 C-2.53476562 9.75988281 -2.70234375 10.58617187 -2.875 11.4375 C-3.03742187 12.26121094 -3.19984375 13.08492187 -3.3671875 13.93359375 C-3.57601562 14.61550781 -3.78484375 15.29742188 -4 16 C-4.66 16.33 -5.32 16.66 -6 17 C-5.57664615 10.50857435 -3.08900201 5.66507011 0 0 Z " fill="#0B3D71" transform="translate(715,510)"/>
<path d="M0 0 C1.65322266 0.01740234 1.65322266 0.01740234 3.33984375 0.03515625 C4.99693359 0.04869141 4.99693359 0.04869141 6.6875 0.0625 C7.54214844 0.07410156 8.39679688 0.08570313 9.27734375 0.09765625 C9.27734375 0.75765625 9.27734375 1.41765625 9.27734375 2.09765625 C5.64734375 2.09765625 2.01734375 2.09765625 -1.72265625 2.09765625 C-1.72265625 3.74765625 -1.72265625 5.39765625 -1.72265625 7.09765625 C-2.38265625 7.09765625 -3.04265625 7.09765625 -3.72265625 7.09765625 C-3.76519981 5.09810879 -3.76346408 3.09723989 -3.72265625 1.09765625 C-2.72265625 0.09765625 -2.72265625 0.09765625 0 0 Z " fill="#244F7A" transform="translate(125.72265625,781.90234375)"/>
<path d="M0 0 C0.66 0 1.32 0 2 0 C3.59704238 2.36874756 5.0649879 4.72322203 6.5 7.1875 C6.90347656 7.86103516 7.30695312 8.53457031 7.72265625 9.22851562 C9.79525689 12.73415202 11.62433132 16.14962298 13 20 C9.36428659 16.6811607 6.86067641 12.99935849 4.25 8.875 C3.83878906 8.24207031 3.42757812 7.60914063 3.00390625 6.95703125 C0 2.25656665 0 2.25656665 0 0 Z " fill="#0D366B" transform="translate(516,666)"/>
<path d="M0 0 C0 0.66 0 1.32 0 2 C-5.28 2 -10.56 2 -16 2 C-10.54085459 -1.63943027 -6.22885348 -0.95016409 0 0 Z " fill="#0D3F72" transform="translate(229,782)"/>
<path d="M0 0 C0.33 0.99 0.66 1.98 1 3 C-0.76813112 3.24915939 -2.53974982 3.47366632 -4.3125 3.6875 C-5.29863281 3.81511719 -6.28476562 3.94273437 -7.30078125 4.07421875 C-10 4 -10 4 -11.85546875 2.51953125 C-12.42201172 1.76736328 -12.42201172 1.76736328 -13 1 C-8.60563789 0.14256349 -4.47427924 -0.08948558 0 0 Z " fill="#DBE3E2" transform="translate(372,448)"/>
<path d="M0 0 C4.40114397 0.50298788 6.71195019 2.08772731 10 5 C9.34 6.32 8.68 7.64 8 9 C6.68 9 5.36 9 4 9 C4.99 8.67 5.98 8.34 7 8 C7 7.34 7 6.68 7 6 C6.34 6 5.68 6 5 6 C4.87625 5.071875 4.87625 5.071875 4.75 4.125 C4.18741541 1.81562433 4.18741541 1.81562433 1.9375 0.75 C1.298125 0.5025 0.65875 0.255 0 0 Z " fill="#06356B" transform="translate(772,827)"/>
<path d="M0 0 C4.29 0 8.58 0 13 0 C12.67 1.65 12.34 3.3 12 5 C11.67 4.01 11.34 3.02 11 2 C7.7 2 4.4 2 1 2 C0.67 2.66 0.34 3.32 0 4 C0 2.68 0 1.36 0 0 Z " fill="#174170" transform="translate(668,782)"/>
<path d="M0 0 C0.66 0.33 1.32 0.66 2 1 C-1.82122428 5.91300265 -4.95743012 8.98581004 -11 11 C-11 10.34 -11 9.68 -11 9 C-9.21895282 7.39821407 -7.37462722 5.86618074 -5.5 4.375 C-4.4790625 3.55773437 -3.458125 2.74046875 -2.40625 1.8984375 C-1.6121875 1.27195313 -0.818125 0.64546875 0 0 Z " fill="#07396F" transform="translate(443,200)"/>
<path d="M0 0 C0.66 0.99 1.32 1.98 2 3 C1.14115035 6.93639423 -0.02999053 10.48212594 -2 14 C-3.81975482 8.87160006 -1.8599099 4.82315618 0 0 Z " fill="#E7EDE9" transform="translate(667,822)"/>
<path d="M0 0 C4.81397943 4.05387741 5.88541926 7.0217942 7 13 C6.34 13 5.68 13 5 13 C4.15930585 11.39967863 3.32768495 9.79458829 2.5 8.1875 C1.80390625 6.84751953 1.80390625 6.84751953 1.09375 5.48046875 C0 3 0 3 0 0 Z " fill="#E6EAE5" transform="translate(628,797)"/>
<path d="M0 0 C3.52238047 1.56367357 6.27123994 3.69495889 9.25 6.125 C10.14203125 6.84945312 11.0340625 7.57390625 11.953125 8.3203125 C12.62859375 8.87460938 13.3040625 9.42890625 14 10 C13.34 10.66 12.68 11.32 12 12 C11.30132813 11.36191406 10.60265625 10.72382813 9.8828125 10.06640625 C8.97273437 9.24011719 8.06265625 8.41382813 7.125 7.5625 C6.22007812 6.73878906 5.31515625 5.91507813 4.3828125 5.06640625 C2.18862073 2.99092058 2.18862073 2.99092058 0 2 C0 1.34 0 0.68 0 0 Z " fill="#0C396D" transform="translate(550,182)"/>
<path d="M0 0 C0 0.66 0 1.32 0 2 C-0.99 2.66 -1.98 3.32 -3 4 C-3.25030977 6.58380177 -3.25030977 6.58380177 -3 9 C-2.34 9.33 -1.68 9.66 -1 10 C-1.99 10 -2.98 10 -4 10 C-6 7 -6 7 -5.8125 4.4375 C-4.77342756 1.32028268 -3.39691367 0 0 0 Z " fill="#E7EEEB" transform="translate(460,793)"/>
<path d="M0 0 C0.33 0 0.66 0 1 0 C1 3.63 1 7.26 1 11 C-0.65 10.67 -2.3 10.34 -4 10 C-3.01 9.67 -2.02 9.34 -1 9 C-1.020625 7.700625 -1.04125 6.40125 -1.0625 5.0625 C-1.08399454 3.70834367 -1.07148199 2.35243917 -1 1 C-0.67 0.67 -0.34 0.34 0 0 Z " fill="#0A376C" transform="translate(838,808)"/>
<path d="M0 0 C0.99 0.33 1.98 0.66 3 1 C2.67 1.61875 2.34 2.2375 2 2.875 C0.85806765 4.91018344 0.85806765 4.91018344 1 7 C3.475 7.99 3.475 7.99 6 9 C3 10 3 10 0.8125 8.9375 C-1 7 -1 7 -1.3125 3.875 C-1 1 -1 1 0 0 Z " fill="#DBE5E4" transform="translate(441,830)"/>
<path d="M0 0 C1.65 0 3.3 0 5 0 C5 0.99 5 1.98 5 3 C-0.41538462 5.21538462 -0.41538462 5.21538462 -3.375 4.125 C-3.91125 3.75375 -4.4475 3.3825 -5 3 C-3.35 2.67 -1.7 2.34 0 2 C0 1.34 0 0.68 0 0 Z " fill="#E3E6E2" transform="translate(353,450)"/>
<path d="M0 0 C0.95465783 2.16967689 1.14401212 3.56328793 0.3984375 5.82421875 C-0.35870385 7.5684743 -1.17609198 9.28627131 -2 11 C-2.66 11 -3.32 11 -4 11 C-2.7874262 7.27566618 -1.49140021 3.62197194 0 0 Z " fill="#144473" transform="translate(636,697)"/>
<path d="M0 0 C3.0916909 2.52956528 3.90931332 5.22454612 5 9 C4.01 9.495 4.01 9.495 3 10 C0 3.375 0 3.375 0 0 Z " fill="#134373" transform="translate(794,587)"/>
</svg>
